<?xml version="1.0" standalone="no"?>
<!DOCTYPE svg PUBLIC "-//W3C//DTD SVG 20010904//EN"
 "http://www.w3.org/TR/2001/REC-SVG-20010904/DTD/svg10.dtd">
<svg version="1.0" xmlns="http://www.w3.org/2000/svg"
 width="512.000000pt" height="512.000000pt" viewBox="0 0 512.000000 512.000000"
 preserveAspectRatio="xMidYMid meet">

<g transform="translate(0.000000,512.000000) scale(0.100000,-0.100000)"
fill="#000000" stroke="none">
<path d="M0 2560 l0 -2560 2560 0 2560 0 0 2560 0 2560 -2560 0 -2560 0 0
-2560z m2851 1885 c355 -53 669 -187 964 -409 526 -397 776 -1045 684 -1777
-22 -181 -95 -414 -181 -584 -231 -457 -727 -831 -1284 -969 -183 -45 -238
-51 -489 -51 -206 0 -256 3 -355 22 -352 68 -685 222 -955 443 -102 84 -280
273 -354 376 -151 212 -274 559 -295 829 -15 193 -16 233 -6 362 26 346 123
646 294 908 315 482 871 806 1486 865 120 11 365 4 491 -15z"/>
<path d="M2340 4364 c-14 -2 -59 -9 -100 -15 -364 -54 -759 -244 -1012 -488
-289 -277 -451 -584 -524 -996 -22 -124 -30 -405 -15 -535 68 -593 364 -1032
908 -1347 400 -232 936 -303 1410 -188 503 122 950 449 1180 863 280 501 297
1177 43 1709 -179 377 -522 689 -952 867 -91 38 -269 88 -400 112 -79 15 -477
29 -538 18z m-136 -178 c-7 -18 -34 -22 -34 -5 0 5 5 7 10 4 6 -3 13 1 16 10
4 9 8 14 10 12 3 -2 2 -12 -2 -21z m-236 -18 c-1 -22 7 -38 26 -55 15 -12 24
-23 20 -23 -4 0 0 -6 11 -13 14 -11 15 -16 5 -22 -9 -5 -15 -4 -18 3 -2 7 -10
19 -18 26 -8 8 -14 20 -14 27 0 10 -3 10 -12 1 -10 -10 -10 -15 1 -21 8 -5 10
-14 6 -21 -5 -8 -4 -11 2 -7 6 4 16 0 24 -9 7 -8 20 -19 29 -24 13 -7 16 -4
16 13 -1 13 4 21 12 19 8 -1 11 2 7 8 -3 6 -10 8 -15 5 -9 -6 -25 30 -29 68
-1 8 -4 7 -11 -3 -5 -8 -10 -10 -10 -4 0 6 7 17 15 24 10 9 15 9 15 1 0 -6 7
-11 16 -11 9 0 12 5 8 12 -4 7 -3 8 5 4 6 -4 9 -11 6 -16 -3 -5 -1 -11 5 -15
6 -4 8 -11 5 -16 -4 -5 0 -9 9 -9 8 0 16 6 18 12 3 7 7 2 10 -10 4 -12 2 -20
-3 -16 -5 3 -9 -1 -10 -8 0 -10 -2 -10 -6 0 -2 6 -11 12 -19 12 -8 0 -14 9
-14 20 0 12 -7 20 -17 20 -13 0 -14 -3 -6 -11 6 -6 9 -18 6 -25 -3 -9 2 -14
16 -14 12 0 21 -6 21 -15 0 -8 5 -15 11 -15 6 0 8 -8 5 -18 -4 -12 -1 -19 7
-19 7 0 12 10 12 21 0 12 5 21 10 21 6 0 9 -6 8 -14 -2 -21 14 1 22 29 5 19 4
21 -4 10 -6 -8 -11 -12 -11 -8 0 3 -3 14 -7 23 -5 15 -3 16 15 6 14 -7 23 -8
27 -1 3 5 12 10 18 10 7 0 4 -5 -5 -11 -21 -11 -23 -34 -6 -45 8 -5 9 -2 5 9
-4 11 -1 17 7 17 8 0 17 6 19 13 3 7 6 5 6 -5 1 -10 -5 -18 -11 -18 -9 0 -8
-4 2 -11 11 -8 12 -12 3 -16 -7 -2 -13 -9 -13 -14 0 -6 5 -7 12 -3 7 4 8 3 4
-4 -6 -9 6 -44 20 -61 4 -5 34 26 34 35 0 5 -5 3 -12 -4 -16 -16 -28 -15 -28
3 0 16 1 16 38 20 29 3 54 25 29 25 -9 0 -17 -6 -17 -12 0 -7 -5 -5 -11 5 -12
21 -31 23 -23 2 4 -8 2 -15 -4 -15 -20 0 -5 35 16 38 14 2 19 8 16 20 -5 14
-4 14 4 2 6 -8 9 -17 7 -21 -3 -3 7 -6 21 -6 18 0 24 4 20 14 -3 8 -2 12 3 9
5 -3 8 -18 8 -33 0 -16 -2 -23 -4 -16 -4 10 -7 10 -18 0 -7 -7 -11 -15 -8 -20
2 -4 -1 -6 -8 -5 -6 2 -13 -2 -15 -7 -2 -6 5 -11 16 -11 11 0 20 7 20 14 0 12
3 12 15 2 9 -7 12 -16 8 -19 -14 -10 -11 -40 4 -45 10 -4 13 -1 9 12 -3 9 -1
24 5 32 9 12 10 12 5 -3 -3 -11 -3 -24 1 -30 24 -39 -15 -52 -51 -18 -21 20
-21 20 -22 -5 -1 -13 2 -24 7 -24 4 0 6 -8 3 -17 -5 -15 -4 -15 4 -3 8 10 8
18 0 27 -7 9 -7 13 0 13 6 0 17 -9 25 -21 9 -13 17 -16 22 -10 8 13 15 14 34
2 25 -16 -8 -36 -80 -49 -37 -7 -113 -26 -170 -42 -120 -34 -119 -34 -119 -17
0 15 68 87 82 87 4 0 8 7 8 15 0 19 2 19 -55 -6 -39 -17 -49 -19 -57 -8 -7 11
-8 10 -6 -3 4 -19 -69 -81 -85 -71 -5 3 -7 1 -4 -5 7 -10 -121 -145 -272 -287
-112 -106 -234 -263 -290 -372 -24 -47 -36 -57 -21 -18 9 25 -4 37 -13 13 -3
-8 -6 -7 -6 4 -1 9 -6 20 -13 24 -7 5 -9 2 -5 -9 3 -9 -1 -18 -10 -21 -8 -4
-13 -12 -10 -19 3 -8 1 -20 -5 -28 -6 -10 -8 -3 -3 21 3 19 7 43 8 53 1 9 7
17 15 17 11 0 10 3 -1 15 -9 8 -17 20 -20 27 -2 8 -8 9 -13 4 -5 -5 -4 -11 4
-13 6 -3 12 -9 12 -14 0 -6 -4 -8 -9 -4 -6 3 -8 -4 -6 -15 2 -11 0 -20 -5 -20
-5 0 -6 -8 -3 -17 6 -16 5 -17 -12 -3 -10 8 -16 10 -12 4 7 -13 -13 -24 -43
-24 -24 0 -34 -33 -20 -60 16 -31 6 -35 -42 -19 -48 16 -50 16 -78 18 -17 1
-18 4 -8 20 7 11 15 18 18 16 8 -5 60 43 60 55 0 6 -6 10 -12 10 -9 0 -8 4 2
10 13 9 13 10 0 11 -8 0 -4 4 9 8 28 7 40 28 17 28 -8 0 -13 -4 -10 -9 3 -4
-2 -8 -10 -8 -10 0 -13 6 -9 17 4 11 3 14 -6 9 -7 -5 -10 -23 -8 -49 3 -26 -1
-46 -9 -55 -11 -11 -14 -11 -14 0 0 7 -12 1 -25 -14 -23 -27 -43 -38 -30 -18
3 6 1 10 -4 10 -6 0 -11 -7 -11 -17 0 -26 -14 -5 -16 23 -1 18 3 23 13 20 8
-3 13 0 11 7 -2 7 2 12 7 12 6 0 9 -8 9 -18 -2 -20 17 -18 24 3 3 9 0 10 -9 4
-10 -6 -9 -1 3 16 9 14 21 24 27 23 6 -2 11 2 11 7 0 6 -7 10 -16 10 -8 0 -12
5 -9 10 4 6 11 8 16 5 5 -4 9 3 9 14 0 12 5 21 11 21 6 0 9 6 6 14 -4 9 2 14
19 14 13 0 24 -4 24 -9 0 -5 -4 -9 -10 -9 -5 0 -10 -4 -10 -8 0 -11 39 -12 45
-1 4 5 1 9 -6 9 -7 0 -9 3 -6 7 4 3 2 12 -4 20 -7 8 -8 13 -1 13 5 0 15 -7 22
-15 9 -11 16 -12 25 -5 6 5 16 6 20 2 5 -4 5 -1 0 6 -5 10 -10 11 -18 3 -13
-13 -37 4 -37 28 0 13 -2 14 -9 2 -5 -8 -21 -15 -35 -16 -24 -1 -26 2 -21 30
4 26 4 27 -5 8 -5 -12 -7 -36 -5 -53 3 -28 1 -30 -18 -24 -31 9 -33 12 -19 34
10 16 9 18 -3 14 -8 -4 -15 -10 -15 -15 0 -5 -7 -9 -17 -9 -13 0 -11 -5 8 -23
14 -13 27 -18 31 -12 10 14 19 0 12 -19 -5 -13 -14 -16 -30 -12 -13 4 -24 3
-23 -1 1 -5 1 -16 0 -27 -1 -15 -4 -16 -16 -6 -9 7 -19 9 -23 5 -4 -4 -1 -10
6 -12 6 -3 12 -10 12 -17 0 -16 -47 -9 -53 8 -2 6 -3 3 -2 -6 4 -21 -6 -23
-25 -5 -12 10 -12 9 -2 -5 15 -19 -1 -34 -16 -15 -13 15 47 172 109 284 174
315 496 594 846 732 57 23 105 41 107 41 2 0 2 -10 -1 -22 -4 -22 -4 -22 11
-4 8 10 13 23 10 27 -3 5 -1 9 5 9 5 0 9 -14 9 -32z m414 0 c-7 -7 -12 -8 -12
-2 0 14 12 26 19 19 2 -3 -1 -11 -7 -17z m-278 -14 c3 -8 2 -12 -4 -9 -6 3
-10 10 -10 16 0 14 7 11 14 -7z m94 -12 c6 -18 -15 -14 -22 4 -4 10 -1 14 6
12 6 -2 14 -10 16 -16z m89 -13 c-17 -27 -33 -30 -35 -6 -1 17 1 19 8 7 8 -13
10 -13 10 1 0 9 6 16 14 16 11 0 12 -4 3 -18z m67 -15 c3 -8 2 -12 -4 -9 -6 3
-10 10 -10 16 0 14 7 11 14 -7z m35 -14 c11 -24 11 -24 -3 -6 -9 11 -16 24
-16 30 0 12 5 7 19 -24z m196 -43 c10 -26 15 -50 12 -53 -3 -3 -22 -1 -42 6
-20 7 -47 10 -60 8 -17 -4 -25 0 -28 14 -4 15 -2 17 7 8 10 -8 22 0 47 34 19
24 37 41 40 38 4 -4 14 -28 24 -55z m-153 39 c7 4 8 2 4 -5 -9 -13 -26 -5 -25
12 0 9 2 8 6 -1 2 -6 10 -9 15 -6z m316 -11 c-3 -3 -9 2 -12 12 -6 14 -5 15 5
6 7 -7 10 -15 7 -18z m93 -45 c13 -11 16 -19 9 -30 -7 -11 -10 -12 -10 -2 0 8
-9 25 -20 39 -11 14 -20 31 -20 37 0 6 6 2 12 -9 6 -11 19 -27 29 -35z m179
46 c0 -2 -8 -10 -17 -17 -16 -13 -17 -12 -4 4 13 16 21 21 21 13z m-335 -34
c-3 -3 -11 0 -18 7 -9 10 -8 11 6 5 10 -3 15 -9 12 -12z m272 -24 c-3 -8 -6
-5 -6 6 -1 11 2 17 5 13 3 -3 4 -12 1 -19z m-517 -13 c0 -14 -5 -25 -12 -25
-6 0 -8 3 -5 7 4 3 1 13 -6 21 -9 13 -9 14 1 8 6 -4 12 -2 12 3 0 6 2 11 5 11
3 0 5 -11 5 -25z m213 5 c3 -13 10 -18 21 -14 12 4 15 2 10 -9 -7 -20 16 -33
28 -16 7 10 8 9 3 -6 -11 -31 -11 -70 0 -70 6 0 9 3 8 8 -2 4 2 7 7 7 15 0 12
-30 -2 -31 -10 0 -10 -2 0 -6 17 -7 15 -23 -3 -23 -8 0 -15 7 -15 15 0 8 -4
15 -10 15 -5 0 -10 -4 -10 -8 0 -16 -67 -13 -74 3 -3 8 -1 15 4 15 6 0 10 -4
10 -10 0 -5 5 -10 11 -10 5 0 8 4 4 9 -3 5 -1 12 5 16 5 3 10 -1 10 -9 0 -19
26 -11 34 11 5 13 4 13 -8 4 -11 -9 -14 -6 -14 16 0 48 -16 88 -31 79 -3 -3
-7 4 -7 15 0 25 12 24 19 -1z m60 3 c-3 -7 -6 -13 -8 -13 -2 0 -5 6 -8 13 -3
8 1 14 8 14 7 0 11 -6 8 -14z m40 0 c-4 -10 -2 -14 5 -9 6 3 13 2 17 -4 4 -6
12 -7 18 -4 8 4 7 2 -1 -7 -11 -12 -14 -12 -22 1 -14 22 -24 -13 -11 -37 10
-20 10 -48 -1 -59 -4 -3 -5 2 -4 11 1 9 -3 38 -9 63 -9 35 -9 49 -1 54 16 11
16 10 9 -9z m-355 -28 c-3 -3 -9 2 -12 12 -6 14 -5 15 5 6 7 -7 10 -15 7 -18z
m672 21 c0 -3 -4 -8 -10 -11 -5 -3 -10 -1 -10 4 0 6 5 11 10 11 6 0 10 -2 10
-4z m-97 -26 c-4 -16 -2 -19 13 -14 16 5 16 4 4 -5 -13 -10 -13 -12 0 -21 13
-9 13 -10 0 -10 -12 0 -12 -2 -2 -8 7 -5 10 -16 6 -25 -3 -9 -2 -18 2 -18 42
-6 54 -5 54 7 0 8 -4 14 -10 14 -5 0 -10 -5 -10 -12 0 -9 -3 -9 -12 0 -15 15
-11 18 30 27 33 7 33 6 21 -17 -12 -23 -12 -23 10 -4 11 11 24 16 28 13 3 -4
1 -7 -5 -7 -7 0 -12 -4 -12 -10 0 -5 6 -8 13 -6 6 1 9 1 4 -1 -4 -3 -4 -10 0
-16 4 -7 -1 -6 -10 2 -17 13 -23 6 -18 -21 2 -13 -27 -9 -32 5 -3 9 -8 9 -18
-2 -8 -8 -9 -11 -2 -7 7 4 18 -4 26 -21 14 -26 15 -26 21 -5 4 12 11 22 16 22
14 0 21 -32 9 -46 -8 -10 -6 -12 12 -9 13 3 26 0 29 -6 4 -6 7 4 8 21 1 27 -3
31 -18 27 -11 -3 -21 1 -24 10 -5 11 -1 13 16 7 19 -6 21 -5 11 8 -14 16 -6
61 9 52 5 -3 7 -12 4 -20 -8 -20 23 -31 36 -13 7 11 11 11 15 2 2 -7 9 -13 15
-13 7 0 6 5 -1 14 -9 10 -7 17 6 27 12 10 15 11 9 1 -4 -7 -4 -21 0 -30 13
-31 13 -44 0 -33 -6 5 -26 9 -44 9 -19 -1 -28 -4 -21 -9 7 -4 22 -5 34 -3 18
3 24 -2 30 -24 4 -15 9 -22 12 -15 2 7 12 9 21 6 15 -4 15 -3 2 6 -12 9 -13
12 -1 20 11 7 11 9 0 14 -12 5 -12 7 0 15 9 7 10 12 2 16 -6 4 -9 12 -6 17 9
14 25 11 25 -6 0 -13 19 -20 43 -16 5 1 5 -3 2 -9 -4 -6 -13 -9 -20 -6 -9 3
-13 -2 -12 -15 1 -17 9 -23 28 -21 4 1 5 -8 2 -18 -6 -22 12 -28 20 -7 4 8 6
8 6 0 1 -6 -11 -21 -26 -32 l-26 -21 24 2 c16 2 23 -2 21 -10 -1 -8 2 -11 8
-7 5 3 10 0 10 -7 0 -8 5 -6 11 5 6 9 15 14 21 11 7 -5 8 -2 4 5 -5 7 -14 10
-21 7 -18 -7 -27 21 -15 44 8 15 6 24 -8 38 -15 15 -16 20 -5 31 15 14 18 35
3 26 -6 -3 -7 1 -4 9 9 24 21 19 26 -9 4 -16 0 -29 -10 -34 -13 -7 -11 -11 9
-21 13 -7 28 -18 32 -24 6 -7 7 -5 4 6 -3 9 0 22 8 28 10 8 21 4 46 -20 18
-16 36 -30 39 -30 7 0 4 -76 -4 -88 -7 -11 12 -79 24 -87 6 -4 7 3 1 18 -6 14
-6 29 0 38 5 8 9 19 9 24 0 6 -4 3 -10 -5 -5 -8 -12 -11 -16 -7 -4 3 -1 13 5
21 7 8 10 20 6 26 -3 5 -2 10 3 10 5 0 14 -10 20 -22 6 -13 11 -17 11 -10 1 6
-8 21 -19 32 -10 10 -15 22 -10 25 6 3 17 -10 27 -29 18 -38 39 -50 28 -17
-14 44 -13 57 4 57 9 0 18 -8 18 -18 1 -10 -3 -18 -10 -18 -8 0 -8 -3 1 -12
18 -18 15 -24 -23 -42 -20 -10 -33 -22 -29 -28 4 -5 9 -6 13 -1 11 15 60 33
66 24 7 -13 -5 -42 -16 -35 -5 3 -9 0 -9 -5 0 -6 7 -11 16 -11 8 0 12 -4 9
-10 -4 -6 1 -7 11 -3 10 4 15 2 11 -3 -3 -6 -2 -16 4 -24 7 -13 9 -13 9 0 1 8
7 2 16 -15 9 -20 13 -23 10 -9 -2 12 0 28 5 35 4 8 3 19 -3 26 -13 16 -3 17
24 2 13 -7 17 -14 10 -18 -7 -4 -15 -23 -18 -41 -4 -19 -3 -32 1 -27 5 4 10
17 12 30 2 12 8 26 13 31 4 4 6 14 4 21 -3 7 0 16 7 21 9 5 10 2 6 -9 -3 -10
-2 -17 2 -17 5 0 8 -11 7 -25 -2 -14 3 -30 10 -36 8 -6 14 -17 14 -23 0 -6 -5
-4 -10 4 -9 15 -10 12 -10 -47 0 -5 5 -8 10 -8 6 0 15 -7 20 -15 8 -13 10 -13
10 1 0 9 8 23 18 30 16 13 16 13 2 -5 -14 -18 -13 -19 2 -13 11 4 17 2 15 -6
-1 -7 3 -11 9 -10 9 2 9 -13 1 -80 -1 -10 -8 -22 -16 -26 -12 -8 -12 -14 -1
-42 8 -18 16 -27 18 -20 2 6 -2 18 -8 27 -7 8 -10 18 -6 21 4 4 12 1 17 -7 8
-11 9 -9 4 10 -6 24 -5 24 9 6 9 -11 16 -17 16 -13 0 4 9 3 19 -3 14 -7 22 -7
26 0 4 6 11 8 16 5 5 -4 9 1 9 9 0 9 -4 16 -10 16 -5 0 -10 5 -10 12 0 6 3 8
7 5 3 -4 13 -1 21 5 12 10 13 6 8 -26 -5 -32 -4 -37 8 -27 11 9 15 8 20 -4 3
-9 2 -14 -3 -11 -8 5 -15 -4 -21 -29 -4 -19 -21 -45 -29 -45 -7 0 -31 43 -31
55 0 2 7 2 15 -1 8 -4 13 -10 10 -14 -3 -5 -1 -11 4 -14 5 -4 8 2 7 11 -2 10
2 21 8 25 6 4 -3 6 -21 4 -18 -2 -34 2 -36 8 -3 8 -8 7 -18 -1 -11 -11 -10
-13 4 -13 18 0 33 -40 29 -75 -2 -17 -1 -18 8 -5 9 13 10 12 7 -5 -2 -11 -9
-19 -15 -18 -7 2 -12 -2 -12 -8 0 -6 -7 -9 -15 -5 -21 8 -19 -16 4 -36 18 -15
19 -15 25 5 3 12 8 19 11 16 10 -11 14 -89 4 -89 -5 0 -9 -8 -9 -17 0 -15 -2
-16 -10 -3 -6 9 -5 17 3 22 11 7 3 12 -15 9 -4 0 -5 5 -3 12 4 8 -6 12 -29 12
-19 0 -32 -2 -30 -4 2 -2 -1 -10 -7 -18 -8 -9 -8 -13 -1 -13 6 0 14 5 17 10 9
14 28 12 22 -2 -2 -7 -10 -12 -16 -11 -6 2 -11 -1 -11 -6 0 -5 -9 -7 -20 -4
-15 4 -17 9 -10 23 7 13 4 22 -13 36 l-22 19 19 -22 c19 -23 19 -23 0 -23 -23
0 -60 62 -49 81 5 8 4 10 -3 5 -14 -8 -54 53 -45 67 3 6 1 7 -5 3 -6 -4 -16 4
-23 16 -7 13 -15 25 -18 28 -4 3 -18 21 -31 40 -12 19 -58 69 -102 111 -43 42
-78 85 -78 95 0 14 -2 16 -9 6 -6 -10 -19 -4 -52 24 -24 20 -43 41 -41 46 1 5
-2 7 -8 3 -13 -8 -42 14 -35 25 3 5 0 12 -6 16 -8 4 -9 3 -5 -4 4 -7 3 -12 -3
-12 -5 0 -14 7 -19 16 -5 9 -12 15 -16 14 -11 -3 -66 22 -66 30 0 4 -9 10 -20
13 -11 3 -20 13 -21 24 0 17 -1 17 -8 -1 -6 -16 -9 -16 -22 -5 -8 8 -18 14
-24 14 -33 2 -95 31 -103 49 -9 18 -11 18 -11 3 -1 -16 -4 -16 -36 -3 -20 9
-39 16 -43 18 -4 2 -6 6 -5 9 1 3 -19 4 -45 2 l-47 -4 0 55 c0 30 3 52 7 50 5
-3 9 5 9 18 2 23 2 23 6 -1 l5 -25 19 25 19 24 -10 -29 c-6 -16 -9 -31 -6 -33
9 -10 44 31 39 46 -3 12 0 11 11 -3 12 -15 16 -16 17 -5 0 10 2 11 6 1 4 -10
8 -10 19 -1 8 7 17 9 21 5 3 -3 1 -6 -5 -6 -6 0 -9 -6 -6 -13 3 -8 -2 -20 -10
-27 -21 -17 -48 -6 -39 16 4 12 3 15 -6 10 -7 -5 -11 -17 -8 -27 3 -11 1 -19
-4 -19 -5 0 -9 3 -9 8 0 4 -11 7 -24 7 -13 0 -22 -2 -20 -4 2 -2 -2 -11 -8
-20 -10 -13 -10 -14 2 -3 17 15 34 16 24 1 -4 -8 1 -9 16 -4 17 5 21 4 15 -5
-5 -9 -4 -11 3 -6 7 4 12 1 13 -6 0 -10 2 -10 6 0 2 6 9 10 14 6 5 -3 14 6 21
20 8 19 14 23 24 15 20 -16 26 12 14 66 -4 16 -1 25 9 25 5 0 7 -9 4 -20z m77
-28 c0 -20 -5 -28 -18 -28 -10 0 -19 8 -19 18 -2 21 12 24 21 6 3 -7 4 -1 2
14 -1 15 1 25 5 22 5 -3 9 -17 9 -32z m132 26 c-9 -9 -9 -15 0 -27 8 -11 5
-10 -8 2 -16 15 -17 19 -4 27 21 13 26 12 12 -2z m-782 -23 c0 -8 -2 -15 -4
-15 -2 0 -6 7 -10 15 -3 8 -1 15 4 15 6 0 10 -7 10 -15z m27 -7 c-3 -8 -6 -5
-6 6 -1 11 2 17 5 13 3 -3 4 -12 1 -19z m67 6 c3 -8 2 -12 -4 -9 -13 8 -13 -8
1 -22 8 -8 7 -13 -2 -18 -8 -5 -10 -4 -5 4 4 6 0 14 -8 17 -12 5 -13 10 -5 25
12 23 15 24 23 3z m586 -10 c0 -8 -4 -14 -10 -14 -5 0 -10 9 -10 21 0 11 5 17
10 14 6 -3 10 -13 10 -21z m70 17 c0 -5 -3 -16 -6 -25 -8 -20 -41 -21 -41 -2
0 8 6 12 14 9 7 -3 13 2 13 11 0 9 5 16 10 16 6 0 10 -4 10 -9z m270 -5 c0 -3
-4 -8 -10 -11 -5 -3 -10 -1 -10 4 0 6 5 11 10 11 6 0 10 -2 10 -4z m-200 -21
c0 5 5 4 11 -2 6 -6 18 -9 25 -6 8 3 14 1 14 -4 0 -20 -14 -22 -33 -6 -10 10
-22 17 -25 15 -4 -2 -8 2 -10 10 -2 9 0 8 7 -2 6 -8 11 -11 11 -5z m-33 -38
c-7 -11 -20 -23 -27 -25 -9 -3 -8 2 3 18 13 19 14 27 4 38 -10 13 -9 14 11 3
21 -11 22 -14 9 -34z m120 21 c-3 -8 -6 -5 -6 6 -1 11 2 17 5 13 3 -3 4 -12 1
-19z m-841 -37 c-6 -2 -15 -9 -19 -15 -5 -7 -6 -3 -3 8 4 11 -1 27 -11 40 -14
15 -11 14 13 -4 17 -14 26 -27 20 -29z m-42 -6 c-3 -7 -12 -16 -20 -19 -11 -4
-12 -2 -1 16 9 16 9 22 0 25 -7 3 -13 9 -13 15 0 6 9 3 19 -6 11 -10 17 -24
15 -31z m1016 41 c0 -3 -4 -8 -10 -11 -5 -3 -10 -1 -10 4 0 6 5 11 10 11 6 0
10 -2 10 -4z m51 -13 c13 -16 12 -17 -3 -4 -17 13 -22 21 -14 21 2 0 10 -8 17
-17z m-587 -11 c3 -5 -1 -9 -9 -9 -8 0 -15 4 -15 9 0 4 4 8 9 8 6 0 12 -4 15
-8z m501 -51 c-10 -25 -24 2 -18 33 6 30 6 30 15 6 5 -13 6 -30 3 -39z m104
42 c10 9 11 9 6 -5 -7 -18 -45 -21 -42 -3 1 5 -4 9 -11 7 -8 -1 -11 2 -7 8 5
8 12 6 24 -4 14 -13 20 -13 30 -3z m59 -18 c-3 -3 -9 2 -12 12 -6 14 -5 15 5
6 7 -7 10 -15 7 -18z m-798 6 c0 -6 -4 -12 -8 -15 -5 -3 -9 1 -9 9 0 8 4 15 9
15 4 0 8 -4 8 -9z m-257 -8 c-7 -2 -19 -2 -25 0 -7 3 -2 5 12 5 14 0 19 -2 13
-5z m1242 -13 c10 -11 16 -20 13 -20 -3 0 -13 9 -23 20 -10 11 -16 20 -13 20
3 0 13 -9 23 -20z m-245 -32 c0 -12 -3 -18 -7 -14 -10 10 -11 46 -1 40 4 -3 8
-15 8 -26z m47 17 c0 -8 -4 -12 -9 -9 -5 3 -6 10 -3 15 9 13 12 11 12 -6z m21
-29 c-7 -8 -17 -12 -22 -9 -4 3 -2 9 5 14 22 13 31 11 17 -5z m45 -51 c-3 -9
-8 -14 -10 -11 -3 3 -2 9 2 15 9 16 15 13 8 -4z m12 -53 c-3 -3 -11 0 -18 7
-9 10 -8 11 6 5 10 -3 15 -9 12 -12z m29 -8 c-5 -18 -3 -25 4 -20 6 3 13 2 17
-4 4 -6 10 -8 15 -5 5 3 11 1 14 -4 4 -5 2 -12 -3 -15 -5 -4 -12 -2 -16 4 -4
6 -10 8 -15 5 -5 -3 -12 0 -16 6 -5 8 -12 4 -24 -11 l-17 -23 1 31 c0 16 4 28
8 26 4 -3 12 5 18 16 15 28 22 25 14 -6z m36 11 c0 -8 -4 -15 -10 -15 -5 0 -7
7 -4 15 4 8 8 15 10 15 2 0 4 -7 4 -15z m40 5 c0 -5 -2 -10 -4 -10 -3 0 -8 5
-11 10 -3 6 -1 10 4 10 6 0 11 -4 11 -10z m25 -22 c-7 -34 -15 -34 -15 1 0 18
4 30 9 26 6 -3 8 -15 6 -27z m-25 -4 c0 -8 -19 -13 -24 -6 -3 5 1 9 9 9 8 0
15 -2 15 -3z m200 -19 c13 -14 21 -25 18 -25 -2 0 -15 11 -28 25 -13 14 -21
25 -18 25 2 0 15 -11 28 -25z m-115 -34 c-2 -5 -13 -11 -24 -14 -14 -3 -18 -1
-14 9 3 8 9 11 14 8 5 -3 9 0 9 6 0 6 5 8 10 5 6 -4 8 -10 5 -14z m-45 5 c0
-11 -19 -15 -25 -6 -3 5 1 10 9 10 9 0 16 -2 16 -4z m209 -30 c9 -11 9 -16 -1
-22 -7 -4 -10 -4 -6 1 4 4 3 14 -3 22 -6 7 -9 13 -6 13 2 0 10 -6 16 -14z
m-222 -28 c-3 -8 -6 -5 -6 6 -1 11 2 17 5 13 3 -3 4 -12 1 -19z m-1082 -32
c86 -41 169 -69 204 -68 14 0 34 -8 45 -17 10 -9 20 -15 22 -13 14 8 23 -2 26
-30 3 -33 4 -33 63 -38 67 -6 93 -18 148 -66 35 -32 41 -34 116 -34 l78 0 24
-45 c26 -49 21 -71 -19 -90 -15 -7 -22 -19 -22 -37 0 -35 -16 -37 -24 -4 -7
30 -47 60 -104 76 -23 7 -41 15 -39 17 4 4 108 -20 142 -32 11 -4 3 5 -19 20
-21 15 -55 32 -75 37 -104 29 -304 116 -385 170 -49 32 -92 56 -95 53 -2 -3
30 -41 73 -84 77 -77 78 -78 51 -85 -46 -12 -22 -29 86 -61 156 -47 225 -88
284 -166 26 -35 58 -44 79 -24 9 9 16 12 16 7 0 -18 -30 -35 -63 -36 -17 -1
-35 -5 -38 -9 -3 -4 -14 13 -24 38 -24 64 -101 114 -220 144 -80 20 -88 20
-116 5 -61 -31 -112 12 -111 92 1 39 -2 45 -24 50 -38 10 -96 -17 -122 -56
-17 -26 -22 -45 -20 -80 l3 -45 46 -1 c25 -1 59 -9 75 -18 16 -9 22 -16 14
-15 -79 7 -127 -51 -86 -106 11 -15 25 -18 77 -17 73 2 111 -12 62 -22 -35 -8
-73 -40 -73 -61 0 -29 39 -37 135 -30 59 4 95 3 99 -3 3 -6 -6 -13 -22 -17
-45 -9 -92 -42 -86 -59 3 -9 30 -20 62 -27 91 -18 108 -31 110 -80 2 -52 17
-109 36 -134 13 -17 15 -15 35 31 26 59 63 99 113 125 50 26 51 25 23 -17 -33
-48 -35 -128 -5 -144 17 -9 29 -3 82 41 67 56 112 79 153 79 25 0 24 -2 -17
-33 -44 -34 -88 -100 -75 -113 4 -4 60 -2 123 5 83 9 119 10 127 2 8 -8 7 -11
-3 -11 -8 0 -39 -11 -68 -25 -44 -20 -53 -29 -50 -47 2 -18 16 -27 63 -44 69
-24 109 -44 145 -74 l25 -22 -25 6 c-14 2 -43 10 -66 17 -91 27 -98 -17 -14
-90 33 -29 60 -56 60 -60 0 -5 -20 -1 -44 7 -37 14 -47 14 -60 3 -22 -19 -20
-38 9 -73 34 -40 40 -72 24 -121 l-13 -42 -6 53 c-7 67 -34 88 -75 58 -16 -12
-17 -18 -7 -59 16 -62 14 -117 -4 -147 -14 -25 -14 -24 -8 12 8 47 -20 108
-48 108 -12 0 -29 -10 -39 -22 -23 -25 -22 -18 -4 -62 11 -27 13 -46 6 -77
-12 -54 -21 -61 -21 -15 0 39 -24 96 -40 96 -5 0 -24 -13 -42 -29 -27 -24 -31
-32 -20 -42 15 -16 14 -54 -3 -99 l-13 -35 -1 53 c-1 60 -14 71 -61 52 -27
-11 -29 -15 -24 -54 3 -22 1 -52 -4 -66 -9 -24 -10 -24 -17 -5 -25 73 -31 77
-81 46 -22 -14 -31 -26 -31 -47 0 -16 -6 -42 -13 -59 l-13 -30 -9 44 -10 43
-39 -5 c-56 -7 -69 -22 -69 -74 0 -51 -15 -50 -24 2 -7 38 -8 38 -54 29 -22
-5 -31 -13 -35 -33 -3 -14 -13 -35 -22 -46 -16 -19 -16 -19 -12 13 7 59 -53
56 -91 -4 -27 -41 -39 -39 -24 5 8 23 7 31 -4 35 -22 8 -46 -4 -82 -43 -30
-32 -34 -30 -16 13 11 27 -44 28 -84 1 -49 -33 -70 -34 -49 -1 9 13 13 26 10
30 -11 11 -87 6 -128 -9 -22 -8 -49 -14 -59 -15 -17 0 -17 3 8 29 l28 29 -23
13 c-43 23 -116 36 -167 31 -63 -6 -66 7 -9 32 l42 18 -60 29 c-33 15 -65 28
-72 29 -6 0 -24 5 -40 11 -22 8 -24 12 -13 19 8 6 25 10 38 10 32 0 27 23 -13
59 -19 17 -36 34 -36 38 0 5 -9 11 -20 15 -25 9 -24 25 1 33 22 7 26 35 8 53
-9 9 -8 17 2 37 7 14 11 28 7 31 -3 4 1 13 9 22 10 9 13 24 10 38 -5 19 0 26
24 39 32 17 39 39 15 49 -19 7 -19 26 0 26 8 0 49 25 91 54 62 44 81 53 96 45
25 -13 23 -23 -13 -64 -18 -20 -30 -37 -28 -38 2 -1 22 -11 44 -22 22 -11 41
-29 43 -39 4 -18 3 -19 -13 -3 -23 24 -86 22 -113 -3 -23 -22 -29 -40 -12 -40
6 0 10 -4 10 -10 0 -5 -7 -10 -15 -10 -8 0 -24 -18 -34 -39 l-20 -39 22 -15
c22 -14 22 -15 3 -35 -22 -25 -15 -52 14 -52 23 0 26 -10 8 -28 -19 -19 20
-55 51 -47 21 5 23 4 12 -9 -17 -21 -4 -37 57 -72 238 -133 528 -120 837 40
131 67 210 118 296 190 112 95 142 176 101 270 -28 62 -48 60 -130 -13 -37
-33 -78 -69 -92 -80 -19 -15 -22 -23 -15 -34 6 -8 18 -25 27 -39 10 -13 21
-40 24 -59 l7 -34 -28 34 c-51 60 -117 72 -154 28 -10 -13 -8 -22 13 -56 36
-57 32 -66 -15 -32 -55 40 -130 64 -171 56 -50 -11 -140 -53 -166 -78 -23 -22
-23 -21 2 23 14 25 26 52 26 61 0 38 -96 27 -176 -20 -19 -12 -37 -21 -39 -21
-3 0 7 16 20 36 28 42 32 85 10 104 -19 15 -92 7 -135 -15 -40 -21 -40 -2 0
51 33 43 38 88 15 115 -17 17 -46 15 -109 -10 -57 -23 -44 10 30 73 55 48 67
80 45 115 -11 17 -77 9 -122 -15 -47 -24 -37 8 14 42 67 44 97 76 97 101 0 28
-7 29 -34 5 -12 -10 -51 -37 -88 -60 l-68 -41 0 27 c0 15 13 47 30 72 l30 45
-28 22 -27 23 26 -11 c23 -10 32 -8 59 12 61 45 75 110 27 123 -12 3 -46 3
-74 -1 -49 -5 -53 -4 -53 15 0 24 26 40 108 67 29 9 51 19 48 22 -6 7 -126
-35 -141 -48 -12 -12 -65 -12 -65 0 0 5 18 12 41 16 23 4 50 16 60 26 11 11
42 28 71 39 56 21 68 33 68 68 0 29 -41 45 -92 37 l-37 -7 2 39 1 38 53 2 c62
3 95 18 91 41 -2 8 -19 20 -38 25 -36 9 -60 24 -60 37 0 4 30 10 66 12 50 3
70 9 80 23 12 16 12 21 -2 36 -8 9 -31 20 -50 23 -28 6 -34 11 -34 33 0 26 0
26 63 19 34 -4 72 -10 85 -13 17 -4 22 -1 22 16 0 14 -17 33 -51 57 -27 20
-47 40 -42 44 4 4 54 -4 110 -18 57 -14 106 -23 109 -20 10 11 -26 55 -66 83
-82 57 -35 57 85 1z m1215 14 c0 -11 -4 -20 -9 -20 -7 0 -8 17 -2 38 4 10 11
-2 11 -18z m-47 -25 c-3 -9 -8 -14 -10 -11 -3 3 -2 9 2 15 9 16 15 13 8 -4z
m157 5 c0 -5 -2 -10 -4 -10 -3 0 -8 5 -11 10 -3 6 -1 10 4 10 6 0 11 -4 11
-10z m35 -10 c3 -5 1 -10 -4 -10 -6 0 -11 5 -11 10 0 6 2 10 4 10 3 0 8 -4 11
-10z m-265 -24 c9 -12 8 -15 -8 -13 -12 0 -18 6 -15 14 6 16 8 16 23 -1z m86
-23 c-4 -4 -12 -1 -19 7 -9 10 -9 11 1 6 7 -4 12 -2 13 6 0 11 2 11 6 0 3 -7
2 -16 -1 -19z m214 -15 c0 -5 -6 -3 -13 4 -8 7 -14 19 -14 26 0 11 4 10 14 -4
7 -10 13 -22 13 -26z m-174 17 c4 -8 13 -15 21 -15 8 0 11 -5 8 -11 -5 -7 -13
-5 -24 5 -10 9 -20 14 -23 11 -2 -3 -5 2 -5 10 0 8 4 15 9 15 5 0 11 -7 14
-15z m74 -15 c0 -5 -2 -10 -4 -10 -3 0 -8 5 -11 10 -3 6 -1 10 4 10 6 0 11 -4
11 -10z m-101 -33 c0 -9 -2 -8 -6 1 -2 6 -10 9 -15 6 -7 -4 -8 -2 -4 5 9 13
26 5 25 -12z m68 -14 c-10 -22 -13 -24 -15 -9 -2 10 2 22 10 27 19 12 19 12 5
-18z m29 -10 c-10 -10 -19 5 -10 18 6 11 8 11 12 0 2 -7 1 -15 -2 -18z m-84
-2 c8 11 9 10 4 -3 -3 -10 -1 -20 4 -23 5 -3 7 -12 4 -20 -5 -12 -10 -12 -27
-3 -33 17 -39 31 -19 46 12 9 18 10 21 1 2 -8 6 -7 13 2z m160 -27 c-9 -16
-10 -14 -9 8 1 15 6 23 11 18 4 -4 4 -16 -2 -26z m-40 -6 c-7 -7 -12 -8 -12
-2 0 6 3 14 7 17 3 4 9 5 12 2 2 -3 -1 -11 -7 -17z m8 -22 c0 -3 -4 -8 -10
-11 -5 -3 -10 -1 -10 4 0 6 5 11 10 11 6 0 10 -2 10 -4z m32 -67 c-13 -11 -19
-25 -16 -31 4 -6 3 -8 -4 -4 -5 3 -12 0 -14 -6 -3 -8 -9 -4 -17 10 -12 23 -8
42 11 42 7 0 7 -4 -1 -13 -6 -8 -8 -17 -5 -20 11 -10 24 3 24 23 0 10 8 20 18
22 26 6 28 0 4 -23z m-75 -34 c-19 -16 -38 -55 -27 -55 5 0 9 -3 9 -7 -3 -18
2 -34 9 -30 4 3 13 -2 21 -10 12 -13 11 -14 -8 -8 -21 6 -22 5 -11 -15 10 -20
10 -21 -8 -11 -11 6 -22 20 -25 31 -3 12 -1 18 5 14 6 -4 9 -1 6 7 -3 8 -10
14 -16 14 -18 0 -14 16 15 62 19 30 29 39 35 30 4 -7 2 -16 -5 -22z m-2870 19
c-3 -3 -12 -4 -19 -1 -8 3 -5 6 6 6 11 1 17 -2 13 -5z m1923 -14 c8 -5 11 -10
5 -10 -5 0 -17 5 -25 10 -8 5 -10 10 -5 10 6 0 17 -5 25 -10z m1047 -16 c-3
-3 -12 -4 -19 -1 -8 3 -5 6 6 6 11 1 17 -2 13 -5z m-77 -26 c1 -21 2 -21 11
-5 8 14 14 16 25 6 10 -8 14 -8 14 0 0 6 8 11 18 11 16 -1 16 -1 0 -11 -10 -5
-21 -10 -25 -10 -5 -1 -16 -5 -26 -11 -14 -7 -22 -5 -32 9 -14 18 -11 33 6 33
5 0 9 -10 9 -22z m-856 3 c4 -5 -3 -7 -14 -4 -23 6 -26 13 -6 13 8 0 17 -4 20
-9z m1036 3 c0 -8 -19 -13 -24 -6 -3 5 1 9 9 9 8 0 15 -2 15 -3z m-3163 -49
c0 -8 -4 -12 -9 -9 -5 3 -6 10 -3 15 9 13 12 11 12 -6z m2993 -7 c0 6 5 12 11
12 6 0 9 -6 6 -14 -4 -10 4 -18 21 -25 17 -6 21 -10 10 -10 -21 -1 -24 -16 -5
-28 6 -4 12 -15 12 -23 0 -8 5 -15 12 -15 6 0 15 -4 20 -9 5 -5 3 -6 -4 -2 -8
4 -13 1 -13 -9 0 -12 -10 -15 -42 -13 -24 1 -59 -1 -78 -6 l-34 -8 17 23 c65
89 70 100 59 111 -7 7 -12 17 -12 23 0 5 5 3 10 -5 6 -10 10 -11 10 -2z m50
-2 c0 -3 -4 -8 -10 -11 -5 -3 -10 -1 -10 4 0 6 5 11 10 11 6 0 10 -2 10 -4z
m75 -16 c3 -5 1 -10 -4 -10 -6 0 -11 5 -11 10 0 6 2 10 4 10 3 0 8 -4 11 -10z
m-705 -20 c0 -5 -2 -10 -4 -10 -3 0 -8 5 -11 10 -3 6 -1 10 4 10 6 0 11 -4 11
-10z m-2480 -19 c0 -11 -3 -27 -6 -36 -6 -14 -8 -13 -21 5 -14 20 -39 18 -27
-2 5 -7 2 -8 -7 -2 -8 5 -17 9 -21 9 -5 0 -8 3 -8 8 0 29 2 31 14 15 9 -12 16
-14 23 -7 7 7 16 5 28 -8 18 -17 18 -17 11 10 -4 16 -2 27 4 27 5 0 10 -9 10
-19z m958 -9 c5 -15 -8 -15 -43 -2 -14 5 -24 14 -21 19 8 12 59 -2 64 -17z
m2209 13 c0 -8 -3 -13 -5 -10 -3 3 -11 -3 -19 -13 -16 -19 -7 4 10 26 12 15
14 15 14 -3z m-2883 -45 c-5 -5 -10 3 -11 18 -1 22 0 24 9 8 6 -10 6 -22 2
-26z m50 6 c-3 -15 -8 -25 -11 -23 -2 3 -1 17 3 31 3 15 8 25 11 23 2 -3 1
-17 -3 -31z m-94 20 c0 -2 -7 -7 -16 -10 -8 -3 -12 -2 -9 4 6 10 25 14 25 6z
m810 -67 c0 -23 -46 -59 -76 -59 -29 0 -29 1 -4 50 11 22 18 40 14 40 -4 0 -1
7 6 15 12 14 16 13 37 -6 12 -13 23 -30 23 -40z m-1141 20 c-23 -20 -33 -24
-26 -11 2 4 7 15 10 24 4 11 12 15 22 12 13 -5 12 -9 -6 -25z m3299 6 c-3 -3
-9 2 -12 12 -6 14 -5 15 5 6 7 -7 10 -15 7 -18z m-2276 2 c11 -9 14 -18 7 -28
-5 -8 -9 -24 -9 -35 0 -28 -20 -36 -51 -20 -30 15 -35 40 -15 71 18 27 42 31
68 12z m-972 -7 c0 -5 -2 -10 -4 -10 -3 0 -8 5 -11 10 -3 6 -1 10 4 10 6 0 11
-4 11 -10z m-35 -20 c-3 -5 -12 -10 -18 -10 -7 0 -6 4 3 10 19 12 23 12 15 0z
m52 -10 c2 -20 -8 -26 -20 -13 -4 3 -2 12 4 20 15 17 14 17 16 -7z m2949 -22
c0 -17 -2 -17 -12 -4 -6 9 -15 12 -19 8 -5 -4 -5 -2 -2 4 10 18 33 12 33 -8z
m-2916 -8 c0 -5 -5 -10 -11 -10 -5 0 -7 5 -4 10 3 6 8 10 11 10 2 0 4 -4 4
-10z m-96 -19 c4 -5 -1 -8 -9 -7 -21 3 -31 16 -12 16 9 0 18 -4 21 -9z m971
-24 c17 -13 17 -18 -12 -115 l-30 -102 28 0 c23 0 29 4 29 22 0 13 12 57 26
100 17 53 33 81 50 93 14 9 28 15 30 13 2 -3 -10 -51 -26 -109 -17 -57 -30
-105 -30 -106 0 -1 21 -5 47 -9 173 -26 262 -172 183 -300 -46 -73 -142 -118
-204 -95 -20 8 -27 17 -24 33 2 19 11 24 52 30 114 16 178 127 114 196 -77 83
-289 84 -383 1 l-35 -31 0 43 c0 36 5 47 39 78 34 32 45 53 77 154 21 64 41
117 44 117 3 0 14 -6 25 -13z m2039 -16 c3 -5 -1 -11 -9 -14 -9 -4 -12 -1 -8
9 6 16 10 17 17 5z m263 -27 c-3 -3 -12 -4 -19 -1 -8 3 -5 6 6 6 11 1 17 -2
13 -5z m-244 -24 c3 -11 1 -18 -4 -14 -5 3 -9 12 -9 20 0 20 7 17 13 -6z m4
-112 c-3 -8 -6 -5 -6 6 -1 11 2 17 5 13 3 -3 4 -12 1 -19z m166 -53 c-3 -9 -8
-14 -10 -11 -3 3 -2 9 2 15 9 16 15 13 8 -4z m97 -39 c0 -2 -9 -6 -20 -9 -11
-3 -18 -1 -14 4 5 9 34 13 34 5z m-146 -31 c-4 -8 -11 -15 -16 -15 -6 0 -5 6
2 15 7 8 14 15 16 15 2 0 1 -7 -2 -15z m34 -10 c-3 -3 -9 2 -12 12 -6 14 -5
15 5 6 7 -7 10 -15 7 -18z m121 12 c8 -10 7 -14 -2 -14 -8 0 -14 6 -14 14 0 7
1 13 2 13 2 0 8 -6 14 -13z m-49 -5 c0 -13 -39 -32 -45 -22 -3 6 1 10 9 10 9
0 16 5 16 10 0 6 5 10 10 10 6 0 10 -3 10 -8z m-2269 -106 c-7 -47 -20 -105
-31 -128 -13 -28 -20 -65 -20 -109 0 -107 -45 -219 -87 -219 -18 0 -15 14 17
105 24 65 22 109 -6 168 -16 33 -16 35 14 76 17 23 38 66 48 94 9 29 25 67 36
85 32 53 42 28 29 -72z m2159 74 c0 -5 -5 -10 -11 -10 -5 0 -7 5 -4 10 3 6 8
10 11 10 2 0 4 -4 4 -10z m60 -16 c0 -8 -4 -14 -8 -14 -4 0 -8 9 -8 19 0 11 4
17 8 15 4 -3 8 -12 8 -20z m103 9 c-6 -2 -9 -13 -6 -23 6 -22 -4 -25 -27 -10
-10 6 -11 10 -2 10 6 0 12 9 12 20 0 14 5 18 17 13 9 -4 12 -8 6 -10z m-240
-6 c14 -7 22 -18 19 -23 -4 -5 -17 1 -29 13 -26 27 -25 28 10 10z m97 -6 c-13
-26 -13 -34 2 -25 8 5 9 2 3 -12 -11 -25 -8 -95 5 -108 6 -6 6 -14 -1 -22 -7
-9 -7 -18 1 -31 11 -17 11 -17 6 0 -3 10 0 26 6 37 10 15 15 17 28 7 13 -10
13 -10 3 3 -8 10 -9 21 -3 30 15 23 12 34 -5 20 -8 -7 -12 -16 -9 -21 3 -5 -2
-9 -10 -9 -20 0 -21 16 -1 24 8 3 20 17 25 31 5 14 15 25 21 25 8 0 8 -4 1
-13 -7 -8 -7 -18 -2 -27 13 -20 12 -33 0 -25 -17 11 -11 -7 8 -21 10 -8 12
-13 5 -14 -16 0 -17 -30 -2 -30 5 0 7 5 3 12 -5 7 -2 9 8 5 16 -5 18 7 7 28
-3 6 -2 26 2 45 3 19 7 29 8 23 0 -7 6 -13 12 -13 7 0 9 9 6 21 -4 15 -2 19 9
15 13 -5 19 5 15 27 -1 10 11 9 29 -3 13 -8 12 -10 -2 -10 -10 0 -18 -5 -18
-11 0 -5 5 -7 10 -4 6 3 10 1 10 -5 0 -7 -7 -10 -15 -6 -9 3 -15 0 -15 -10 0
-10 6 -14 15 -10 8 3 15 1 15 -5 0 -6 6 -7 13 -3 8 5 7 2 -2 -10 -8 -9 -20
-15 -28 -12 -8 3 -11 1 -8 -4 3 -6 13 -10 21 -10 8 0 12 -5 9 -11 -4 -6 -14
-8 -23 -4 -9 3 -13 3 -9 -1 4 -4 1 -14 -6 -22 -10 -13 -9 -14 2 -7 11 6 13 3
9 -13 -4 -12 -3 -24 2 -27 13 -8 19 32 6 45 -8 10 -7 11 4 8 22 -7 24 -47 4
-69 -10 -12 -12 -19 -5 -19 6 0 14 7 17 15 4 8 10 12 15 9 5 -3 3 -17 -5 -32
-16 -30 -3 -82 21 -82 12 0 12 2 -1 16 -18 18 -15 56 5 62 8 2 10 0 4 -5 -14
-11 -17 -33 -5 -33 9 0 11 6 14 43 1 6 -5 11 -12 9 -8 -1 -11 2 -7 8 4 6 13 9
20 6 8 -3 17 4 20 15 4 10 11 19 16 19 6 0 7 -6 2 -12 -4 -7 -6 -35 -5 -63 4
-64 -21 -225 -54 -338 -31 -111 -87 -242 -147 -344 -246 -419 -755 -742 -1287
-818 -134 -19 -284 -20 -274 -2 6 10 4 10 -7 0 -14 -14 -113 -18 -105 -5 2 4
-24 6 -60 4 -35 -2 -64 0 -64 5 0 5 -12 8 -27 6 -49 -5 -198 30 -198 47 0 8 7
13 15 12 8 -2 12 0 8 4 -4 4 -2 14 4 23 7 9 8 13 3 8 -4 -4 -19 3 -32 15 -18
17 -20 24 -11 35 6 8 7 13 2 12 -27 -5 -36 1 -24 16 10 12 10 15 -1 15 -9 1
-5 8 10 20 30 26 20 25 -21 0 -22 -13 -27 -20 -15 -20 9 0 17 -4 17 -10 0 -5
-5 -10 -11 -10 -7 0 -5 -10 5 -25 17 -26 21 -39 8 -31 -4 2 -8 -4 -9 -14 -1
-11 2 -22 8 -25 5 -4 9 -11 9 -18 0 -6 -7 -2 -15 9 -12 14 -14 15 -9 2 4 -13
1 -15 -15 -11 -18 4 -18 7 -6 20 8 8 15 22 15 31 -1 26 -24 52 -39 43 -9 -6
-8 -10 6 -13 22 -6 27 -35 6 -35 -9 0 -10 4 -2 14 8 9 8 13 0 13 -11 0 -15
-12 -12 -42 1 -10 -3 -18 -8 -18 -6 0 -11 7 -11 16 0 8 -5 12 -10 9 -5 -3 -10
1 -10 10 0 9 5 13 11 9 7 -4 10 1 7 11 -6 33 -28 29 -28 -4 0 -17 -4 -31 -10
-31 -5 0 -10 4 -10 10 0 5 -6 7 -14 4 -8 -3 -17 0 -22 7 -4 8 -3 10 4 5 7 -4
12 -1 12 9 0 12 -5 15 -17 10 -15 -5 -16 -4 -5 6 15 16 16 39 1 39 -6 0 -9 -7
-5 -15 3 -8 0 -15 -5 -15 -7 0 -9 -10 -6 -23 6 -20 5 -21 -7 -4 -8 10 -20 15
-29 11 -10 -3 -26 4 -42 20 -14 14 -25 20 -26 13 0 -7 -4 -3 -9 8 -5 11 -9 14
-9 7 -1 -8 -21 -2 -58 18 -117 61 -138 76 -137 98 1 13 -5 22 -13 22 -8 0 -11
5 -8 10 3 6 1 10 -4 10 -17 0 -13 -21 7 -36 9 -7 12 -14 5 -14 -21 0 -177 123
-271 214 -170 165 -286 343 -367 560 -20 55 -34 107 -32 118 3 10 2 16 -3 13
-9 -6 -17 33 -12 58 2 10 10 16 17 13 14 -5 14 18 0 31 -4 4 -5 3 -1 -4 4 -8
-1 -11 -14 -10 -19 1 -20 3 -5 14 19 13 12 33 -13 34 -12 0 -11 3 6 9 22 9 31
30 12 30 -5 0 -10 5 -10 11 0 8 4 9 13 0 8 -6 17 -7 22 -3 4 4 3 -3 -4 -15
-17 -33 -13 -41 8 -16 l18 22 11 -23 c8 -18 7 -29 -3 -43 -14 -20 -17 -65 -4
-57 4 2 11 -5 14 -17 6 -19 7 -20 20 -2 13 16 14 14 10 -19 -4 -31 -2 -36 11
-31 12 4 15 2 12 -8 -3 -8 -11 -13 -17 -11 -6 1 -11 -3 -11 -9 0 -6 7 -9 15
-5 8 3 15 0 15 -6 0 -7 6 -3 14 7 14 19 53 14 41 -5 -4 -6 -10 -8 -15 -5 -4 3
-11 -2 -14 -10 -4 -13 -2 -13 14 -5 10 5 23 10 27 10 11 0 10 -41 -1 -59 -7
-10 -4 -10 12 0 25 16 40 6 23 -15 -9 -11 -9 -16 0 -22 7 -4 9 -3 6 3 -3 5 2
17 11 26 35 32 44 47 30 47 -9 0 -9 3 2 10 8 5 11 10 7 10 -5 0 0 13 9 30 23
38 12 48 -29 28 -29 -14 -38 -14 -72 -2 -41 14 -60 10 -48 -9 4 -7 -1 -6 -11
2 -17 14 -17 20 0 96 4 18 3 17 -7 -2 -13 -24 -35 -36 -50 -27 -5 3 -7 10 -4
15 4 5 1 9 -4 9 -6 0 -11 5 -11 11 0 6 7 8 16 5 13 -5 15 -1 12 24 -4 25 -1
30 16 31 17 0 18 2 5 7 -12 5 -14 13 -8 27 6 17 8 17 8 3 1 -10 5 -18 10 -18
5 0 11 -9 14 -20 4 -17 2 -20 -16 -16 -12 3 -16 3 -9 0 10 -4 10 -9 2 -19 -7
-8 -10 -22 -7 -32 3 -14 6 -12 16 11 10 25 13 27 29 15 9 -7 14 -9 10 -5 -4 5
-3 15 3 23 9 10 7 13 -6 13 -14 0 -15 3 -5 15 20 24 29 17 26 -21 -1 -19 1
-37 4 -39 6 -4 8 3 11 43 2 21 29 62 29 43 0 -17 40 -52 50 -46 5 3 7 -3 6
-12 -3 -19 -26 -31 -26 -13 0 6 6 8 13 4 7 -4 8 -3 4 2 -5 5 -16 9 -25 9 -9 0
-16 6 -14 13 1 6 -3 12 -9 12 -6 0 -9 -6 -6 -12 2 -7 0 -22 -5 -33 -8 -18 -8
-19 5 -3 18 22 30 12 15 -12 -9 -14 -8 -22 5 -35 15 -15 21 -13 18 8 0 4 6 7
14 7 18 0 20 -26 3 -33 -8 -3 -6 -6 5 -6 9 -1 17 0 17 2 0 1 4 17 10 35 8 29
7 32 -6 21 -8 -6 -18 -8 -22 -4 -4 4 -1 10 6 12 6 3 12 11 12 19 0 8 5 14 11
14 5 0 7 -5 3 -11 -4 -7 1 -7 16 1 21 11 22 10 15 -6 -4 -11 -7 -27 -7 -37 0
-10 -4 -15 -10 -11 -8 5 -9 -1 -5 -17 4 -13 7 -29 7 -34 0 -6 8 -15 18 -21 18
-12 18 -9 13 50 -1 4 -8 5 -17 2 -14 -5 -15 -4 -5 8 7 8 10 20 6 26 -3 5 -1
10 6 10 7 0 9 11 5 35 -5 24 -3 35 5 35 6 0 9 -7 5 -15 -3 -8 -1 -15 5 -15 16
0 21 27 9 49 -7 14 -7 21 0 21 5 0 10 -6 10 -13 0 -7 9 -13 20 -13 13 0 19 6
16 16 -3 8 -8 30 -11 48 -5 24 -11 32 -21 28 -9 -3 -12 -1 -9 4 14 23 33 7 44
-37 6 -27 27 -100 47 -164 l36 -116 -41 -93 c-27 -61 -38 -97 -32 -103 6 -6
45 -12 88 -14 43 -2 88 -6 101 -9 13 -2 64 -43 115 -91 185 -174 375 -291 572
-352 111 -35 245 -61 311 -61 33 0 44 -4 44 -16 0 -8 5 -12 10 -9 6 4 8 10 6
14 -3 3 3 7 13 7 10 0 28 -15 40 -33 17 -27 18 -33 6 -33 -8 0 -15 7 -15 15 0
19 -16 19 -24 0 -3 -9 0 -15 9 -15 8 0 14 -3 14 -7 -1 -5 -1 -16 0 -26 1 -16
3 -16 26 -1 14 9 31 14 39 11 8 -3 20 2 28 11 7 9 8 13 2 9 -7 -4 -14 0 -18 8
-3 10 1 15 12 16 16 1 16 2 0 6 -10 2 -18 12 -18 21 0 13 -3 11 -16 -6 -18
-26 -39 -20 -24 7 7 14 27 20 90 25 554 46 1052 461 1196 996 12 47 26 84 31
83 4 -1 8 23 8 53 1 61 5 68 35 59 19 -6 21 -12 16 -44 -3 -22 -2 -31 3 -22 7
11 15 11 40 3 17 -6 31 -9 31 -6 0 3 -14 10 -30 16 -34 11 -35 31 -2 36 28 4
29 18 2 18 -11 0 -20 -4 -20 -8 0 -17 -39 17 -42 37 -2 14 -9 19 -23 17 -17
-2 -17 -1 -4 7 17 11 59 4 59 -10 0 -5 -4 -9 -10 -9 -5 0 -10 -5 -10 -10 0 -7
8 -7 22 1 16 9 23 9 26 0 2 -6 8 -11 14 -11 13 0 0 52 -15 62 -9 6 -9 8 -1 8
7 0 14 12 17 26 3 18 1 22 -6 15 -14 -14 -27 -14 -27 0 0 5 4 8 8 5 4 -2 19 4
32 15 31 23 33 23 20 0z m-2317 -82 c-10 -41 -16 -83 -15 -93 1 -11 -2 -22 -7
-26 -6 -3 -6 -21 0 -49 17 -78 4 -78 -35 -1 -21 41 -43 81 -48 88 -18 21 -2
25 31 7 34 -17 43 -7 11 13 -11 7 -20 21 -20 32 0 21 86 117 96 108 2 -3 -3
-39 -13 -79z m2372 45 c-8 -9 -15 -20 -15 -25 0 -5 -7 -9 -15 -9 -8 0 -15 2
-15 5 0 12 44 54 52 49 4 -3 1 -12 -7 -20z m225 9 c0 -1 -14 -10 -30 -18 -30
-15 -30 -15 -18 4 6 11 20 19 30 18 10 -1 18 -2 18 -4z m-390 -23 c0 -5 -2
-10 -4 -10 -3 0 -8 5 -11 10 -3 6 -1 10 4 10 6 0 11 -4 11 -10z m386 -48 c-6
-5 -36 23 -36 34 0 4 9 -1 20 -11 11 -10 18 -20 16 -23z m-320 1 c-7 -7 -26 7
-26 19 0 6 6 6 15 -2 9 -7 13 -15 11 -17z m300 -28 c1 -14 -2 -25 -7 -25 -6 0
-8 -4 -4 -10 3 -5 12 -7 20 -3 21 7 19 -3 -5 -27 -12 -12 -25 -18 -30 -15 -6
4 -10 1 -10 -5 0 -6 -5 -8 -12 -4 -9 6 -9 9 0 12 7 2 10 8 7 13 -4 5 1 6 10 3
10 -4 15 -1 13 12 0 11 0 34 0 53 2 38 14 35 18 -4z m-31 16 c3 -5 1 -12 -5
-16 -5 -3 -10 1 -10 9 0 18 6 21 15 7z m55 -17 c0 -8 -4 -12 -10 -9 -5 3 -10
10 -10 16 0 5 5 9 10 9 6 0 10 -7 10 -16z m-2693 -94 c81 -105 96 -144 73
-180 -9 -13 -13 -12 -26 5 -9 11 -26 44 -39 72 -18 40 -33 57 -59 70 -20 9
-36 23 -36 32 0 16 28 51 41 51 5 0 26 -22 46 -50z m-453 -5 c-4 -8 -8 -15
-10 -15 -2 0 -4 7 -4 15 0 8 4 15 10 15 5 0 7 -7 4 -15z m-244 -25 c0 -5 -2
-10 -4 -10 -3 0 -8 5 -11 10 -3 6 -1 10 4 10 6 0 11 -4 11 -10z m-70 -14 c-7
-7 -13 -7 -20 0 -6 6 -3 10 10 10 13 0 16 -4 10 -10z m315 4 c3 -6 -1 -7 -9
-4 -18 7 -21 14 -7 14 6 0 13 -4 16 -10z m-250 -20 c10 -11 16 -20 13 -20 -3
0 -13 9 -23 20 -10 11 -16 20 -13 20 3 0 13 -9 23 -20z m137 -2 c-2 -10 -6
-18 -7 -18 -1 0 -5 8 -7 18 -3 11 0 19 7 19 7 0 10 -8 7 -19z m-99 -39 c-6 -6
-10 1 -10 23 0 30 1 30 10 10 7 -15 7 -26 0 -33z m600 37 c69 -29 80 -65 36
-120 l-21 -26 -39 31 c-55 44 -52 63 9 56 l47 -6 -42 16 c-35 12 -43 19 -43
39 0 28 8 29 53 10z m-720 -13 c-3 -7 -6 -13 -8 -13 -2 0 -5 6 -8 13 -3 8 1
14 8 14 7 0 11 -6 8 -14z m188 -20 c-12 -20 -14 -14 -5 12 4 9 9 14 11 11 3
-2 0 -13 -6 -23z m134 -21 c-6 -8 -32 11 -32 23 0 12 4 11 17 -3 10 -9 16 -18
15 -20z m-308 6 c-3 -8 -6 -5 -6 6 -1 11 2 17 5 13 3 -3 4 -12 1 -19z m30 -11
c2 -17 1 -19 -7 -7 -11 17 -14 47 -3 36 4 -3 8 -17 10 -29z m193 12 c0 -5 0
-11 0 -14 0 -8 -15 -6 -15 3 0 4 -4 13 -8 19 -6 9 -3 11 7 7 9 -3 16 -10 16
-15z m-234 -16 c13 -20 13 -25 2 -16 -8 7 -17 11 -19 8 -3 -2 -5 5 -5 15 0 25
0 25 22 -7z m279 7 c3 -6 -1 -7 -9 -4 -18 7 -21 14 -7 14 6 0 13 -4 16 -10z
m-80 -10 c3 -5 1 -10 -4 -10 -6 0 -11 5 -11 10 0 6 2 10 4 10 3 0 8 -4 11 -10z
m-64 -14 c11 7 11 -7 0 -25 -13 -20 -30 -5 -23 21 3 12 7 17 10 10 2 -7 8 -10
13 -6z m249 4 c0 -5 -2 -10 -4 -10 -3 0 -8 5 -11 10 -3 6 -1 10 4 10 6 0 11
-4 11 -10z m-92 -18 c6 -18 -15 -14 -22 4 -4 10 -1 14 6 12 6 -2 14 -10 16
-16z m28 -25 c-9 -13 -13 -27 -9 -30 3 -4 1 -7 -5 -7 -7 0 -12 5 -12 10 0 6
-14 10 -31 10 -16 0 -28 4 -25 9 4 5 19 7 34 5 23 -4 31 0 42 23 7 15 15 23
17 16 2 -6 -3 -23 -11 -36z m-136 23 c0 -5 -4 -10 -10 -10 -5 0 -10 5 -10 10
0 6 5 10 10 10 6 0 10 -4 10 -10z m564 -227 c-47 -138 -62 -172 -74 -167 -8 3
-51 8 -96 11 l-80 6 83 169 c77 156 86 170 106 163 54 -16 63 -16 82 5 17 19
20 19 28 4 7 -13 -6 -64 -49 -191z m-538 -60 c-10 -10 -19 5 -10 18 6 11 8 11
12 0 2 -7 1 -15 -2 -18z m2555 -6 c-10 -9 -11 -8 -5 6 3 10 9 15 12 12 3 -3 0
-11 -7 -18z m-1041 -688 c0 -6 -4 -7 -10 -4 -5 3 -10 11 -10 16 0 6 5 7 10 4
6 -3 10 -11 10 -16z m47 -35 c0 -19 -53 -48 -62 -34 -3 6 0 10 7 10 8 0 21 9
31 20 20 24 24 25 24 4z m-531 -293 c-9 -8 -19 -11 -23 -7 -5 5 -3 11 4 13 7
2 9 12 6 21 -6 15 -5 15 11 3 15 -13 15 -16 2 -30z"/>
<path d="M1899 4169 c0 -2 -2 -12 -4 -21 -2 -10 1 -18 6 -18 6 0 7 -4 4 -10
-3 -5 -1 -10 5 -10 6 0 9 -4 5 -9 -3 -5 -1 -12 4 -16 6 -3 8 6 5 21 -4 22 -2
25 13 20 16 -6 16 -5 3 6 -8 7 -21 19 -27 27 -7 8 -13 13 -14 10z"/>
<path d="M1841 4142 c-35 -17 -51 -52 -25 -52 8 0 13 3 13 8 -4 26 3 34 26 30
19 -4 25 -1 25 13 0 11 -1 19 -2 19 -2 -1 -18 -9 -37 -18z"/>
<path d="M1774 4105 c-3 -8 -3 -19 1 -25 3 -5 -1 -13 -10 -16 -12 -5 -13 -10
-4 -20 6 -8 16 -11 21 -8 6 4 5 10 -3 15 -10 6 -10 9 -2 9 7 0 11 12 10 30 -2
33 -5 37 -13 15z"/>
<path d="M1746 4095 c-9 -26 -7 -32 5 -12 6 10 9 21 6 23 -2 3 -7 -2 -11 -11z"/>
<path d="M1840 4101 c0 -20 13 -41 24 -41 7 0 13 7 13 15 0 10 -6 14 -15 10
-10 -3 -12 0 -8 10 3 8 1 15 -4 15 -6 0 -10 -4 -10 -9z"/>
<path d="M1710 4074 c0 -6 7 -19 16 -30 14 -18 14 -18 3 6 -14 31 -19 36 -19
24z"/>
<path d="M1815 4070 c3 -5 8 -10 11 -10 2 0 4 5 4 10 0 6 -5 10 -11 10 -5 0
-7 -4 -4 -10z"/>
<path d="M1935 4067 c-5 -7 -11 -19 -13 -27 -1 -10 3 -8 13 4 8 11 15 23 15
28 0 11 -3 10 -15 -5z"/>
<path d="M1890 4060 c0 -5 5 -10 11 -10 5 0 7 5 4 10 -3 6 -8 10 -11 10 -2 0
-4 -4 -4 -10z"/>
<path d="M1678 4053 c7 -3 16 -2 19 1 4 3 -2 6 -13 5 -11 0 -14 -3 -6 -6z"/>
<path d="M1802 4040 c0 -14 2 -19 5 -12 2 6 2 18 0 25 -3 6 -5 1 -5 -13z"/>
<path d="M1860 4040 c0 -5 7 -10 16 -10 8 0 12 5 9 10 -3 6 -10 10 -16 10 -5
0 -9 -4 -9 -10z"/>
<path d="M1975 4029 c1 -11 7 -25 13 -31 9 -9 12 -6 10 15 -1 14 -7 28 -13 31
-7 2 -11 -5 -10 -15z"/>
<path d="M2055 4040 c3 -5 8 -10 11 -10 2 0 4 5 4 10 0 6 -5 10 -11 10 -5 0
-7 -4 -4 -10z"/>
<path d="M1613 4024 c-3 -8 -2 -19 3 -24 5 -5 9 1 9 16 0 28 -3 30 -12 8z"/>
<path d="M1730 4005 c-6 -8 -10 -20 -7 -27 3 -8 6 -5 6 6 1 16 3 17 19 5 15
-12 16 -12 5 2 -7 9 -10 19 -6 22 3 4 4 7 1 7 -3 0 -11 -7 -18 -15z"/>
<path d="M2070 4011 c0 -6 4 -13 10 -16 6 -3 7 1 4 9 -7 18 -14 21 -14 7z"/>
<path d="M2158 4013 c7 -3 16 -2 19 1 4 3 -2 6 -13 5 -11 0 -14 -3 -6 -6z"/>
<path d="M1834 3995 c1 -8 8 -20 14 -25 8 -7 9 -7 3 1 -5 6 -7 18 -4 25 3 8 1
14 -5 14 -6 0 -9 -7 -8 -15z"/>
<path d="M1866 3993 c-6 -14 -5 -15 5 -6 7 7 10 15 7 18 -3 3 -9 -2 -12 -12z"/>
<path d="M2040 4000 c0 -5 5 -10 11 -10 5 0 7 5 4 10 -3 6 -8 10 -11 10 -2 0
-4 -4 -4 -10z"/>
<path d="M2102 3985 c-1 -13 2 -26 7 -29 4 -3 7 6 7 19 -2 33 -11 40 -14 10z"/>
<path d="M1555 3989 c-4 -6 -5 -12 -2 -15 2 -3 7 2 10 11 7 17 1 20 -8 4z"/>
<path d="M1997 3973 c-11 -10 -8 -43 3 -43 6 0 9 6 8 13 -2 7 5 11 17 9 11 -2
18 -2 15 0 -3 2 -12 9 -21 16 -9 6 -19 9 -22 5z"/>
<path d="M1486 3943 c-6 -14 -5 -15 5 -6 7 7 10 15 7 18 -3 3 -9 -2 -12 -12z"/>
<path d="M2232 3946 c7 -8 15 -12 17 -11 5 6 -10 25 -20 25 -5 0 -4 -6 3 -14z"/>
<path d="M2016 3923 c-6 -14 -5 -15 5 -6 7 7 10 15 7 18 -3 3 -9 -2 -12 -12z"/>
<path d="M2235 3909 c-4 -6 -4 -13 -1 -16 3 -4 6 -1 6 6 0 7 5 9 10 6 6 -3 10
-1 10 4 0 14 -17 14 -25 0z"/>
<path d="M2266 3893 c-6 -14 -5 -15 5 -6 7 7 10 15 7 18 -3 3 -9 -2 -12 -12z"/>
<path d="M1130 3446 c0 -2 7 -7 16 -10 8 -3 12 -2 9 4 -6 10 -25 14 -25 6z"/>
<path d="M1100 3430 c-9 -6 -10 -10 -3 -10 6 0 15 5 18 10 8 12 4 12 -15 0z"/>
<path d="M1130 3410 c0 -5 5 -10 11 -10 5 0 7 5 4 10 -3 6 -8 10 -11 10 -2 0
-4 -4 -4 -10z"/>
<path d="M963 3316 c-4 -5 -1 -6 5 -2 7 4 12 3 12 -3 0 -5 -4 -13 -10 -16 -5
-3 -10 -12 -10 -18 0 -7 5 -4 11 6 6 9 14 15 20 12 5 -4 9 0 9 9 0 8 6 16 13
19 6 2 -1 4 -16 3 -16 0 -31 -5 -34 -10z"/>
<path d="M1177 3323 c-4 -3 -7 -11 -7 -17 0 -6 5 -5 12 2 6 6 9 14 7 17 -3 3
-9 2 -12 -2z"/>
<path d="M1326 3313 c6 -4 14 -15 17 -23 5 -11 6 -9 4 4 -1 11 -9 21 -17 23
-10 3 -11 2 -4 -4z"/>
<path d="M1223 3277 c-20 -23 -27 -57 -11 -57 4 0 8 -4 8 -10 0 -5 -5 -10 -11
-10 -11 0 -39 -25 -39 -35 0 -3 11 2 25 11 23 15 25 15 19 0 -3 -9 -2 -16 3
-16 13 0 15 48 3 70 -6 11 -6 21 -1 24 5 4 11 1 13 -6 3 -9 6 -9 12 0 4 7 2
12 -4 12 -8 0 -8 6 0 20 14 26 8 25 -17 -3z"/>
<path d="M1270 3271 c0 -6 4 -13 10 -16 6 -3 7 1 4 9 -7 18 -14 21 -14 7z"/>
<path d="M1330 3249 c0 -5 5 -7 10 -4 6 3 10 8 10 11 0 2 -4 4 -10 4 -5 0 -10
-5 -10 -11z"/>
<path d="M921 3236 c-8 -10 -9 -16 -1 -21 6 -3 8 -11 5 -16 -4 -5 -1 -9 5 -9
8 0 10 10 6 28 -5 22 -4 24 4 10 6 -10 15 -18 21 -18 5 0 4 9 -3 20 -15 24
-22 25 -37 6z"/>
<path d="M990 3240 c0 -5 5 -10 10 -10 6 0 10 5 10 10 0 6 -4 10 -10 10 -5 0
-10 -4 -10 -10z"/>
<path d="M1151 3228 c-6 -10 -9 -23 -6 -28 4 -6 -5 -14 -19 -20 -25 -9 -25
-10 -8 -40 13 -22 19 -27 27 -17 6 6 19 12 29 12 11 0 21 6 24 14 3 9 0 11 -7
6 -18 -10 -61 -14 -55 -4 3 5 -1 9 -8 9 -10 0 -9 3 2 10 9 6 17 5 23 -3 6 -8
7 -6 3 6 -3 9 -1 17 5 17 6 0 8 7 5 16 -4 10 0 22 10 29 14 10 14 12 2 12 -9
0 -21 -9 -27 -19z"/>
<path d="M1276 3217 c3 -8 11 -14 19 -14 11 0 12 4 4 14 -6 7 -15 13 -20 13
-5 0 -6 -6 -3 -13z"/>
<path d="M1327 3223 c-4 -3 -7 -11 -7 -17 0 -6 5 -5 12 2 6 6 9 14 7 17 -3 3
-9 2 -12 -2z"/>
<path d="M1333 3175 c-3 -9 -3 -18 -1 -21 3 -3 8 4 11 16 6 23 -1 27 -10 5z"/>
<path d="M1305 3170 c3 -5 8 -10 11 -10 2 0 4 5 4 10 0 6 -5 10 -11 10 -5 0
-7 -4 -4 -10z"/>
<path d="M1030 3149 c0 -5 5 -9 10 -9 6 0 12 0 15 0 14 0 8 13 -7 16 -10 1
-18 -2 -18 -7z"/>
<path d="M2900 3950 c0 -5 5 -10 11 -10 5 0 7 5 4 10 -3 6 -8 10 -11 10 -2 0
-4 -4 -4 -10z"/>
<path d="M2950 3890 c0 -5 5 -10 11 -10 5 0 7 5 4 10 -3 6 -8 10 -11 10 -2 0
-4 -4 -4 -10z"/>
<path d="M2931 3885 c-1 -21 14 -34 29 -25 13 8 13 10 -2 10 -9 0 -19 6 -21
13 -3 6 -6 8 -6 2z"/>
<path d="M2980 3871 c0 -6 4 -13 10 -16 6 -3 7 1 4 9 -7 18 -14 21 -14 7z"/>
<path d="M3420 3838 c0 -8 6 -20 13 -27 10 -10 8 -11 -7 -5 -16 6 -17 5 -7
-14 7 -13 8 -22 2 -22 -5 0 -12 5 -14 10 -3 6 -4 5 -3 -2 2 -7 9 -13 17 -13 8
0 15 -5 16 -10 0 -6 -3 -9 -7 -8 -4 1 -11 -4 -14 -12 -6 -17 9 -21 19 -5 10
17 25 11 18 -7 -5 -14 -3 -15 6 -7 10 9 10 17 2 32 -14 27 -14 32 3 32 29 0
25 18 -9 44 -23 18 -35 22 -35 14z m60 -44 c0 -2 -7 -4 -15 -4 -8 0 -15 4 -15
10 0 5 7 7 15 4 8 -4 15 -8 15 -10z"/>
<path d="M3196 3823 c6 -4 14 -15 17 -23 5 -11 6 -9 4 4 -1 11 -9 21 -17 23
-10 3 -11 2 -4 -4z"/>
<path d="M3374 3800 c-1 -33 10 -40 20 -13 4 9 1 22 -6 29 -11 11 -13 8 -14
-16z"/>
<path d="M3280 3816 c0 -2 8 -10 18 -17 15 -13 16 -12 3 4 -13 16 -21 21 -21
13z"/>
<path d="M3236 3784 c-20 -19 -20 -21 -2 -21 8 0 14 5 13 11 -1 6 4 10 11 9 6
-2 12 2 12 7 0 15 -16 12 -34 -6z"/>
<path d="M3470 3761 c0 -6 4 -13 10 -16 6 -3 7 1 4 9 -7 18 -14 21 -14 7z"/>
<path d="M3203 3733 c0 -7 5 -9 10 -6 5 3 13 -1 18 -8 6 -10 8 -8 7 6 -2 22
-35 30 -35 8z"/>
<path d="M3366 3697 c3 -10 9 -15 12 -12 3 3 0 11 -7 18 -10 9 -11 8 -5 -6z"/>
<path d="M3410 3690 c0 -5 5 -10 10 -10 6 0 10 5 10 10 0 6 -4 10 -10 10 -5 0
-10 -4 -10 -10z"/>
<path d="M3560 3655 c0 -8 4 -15 10 -15 5 0 7 7 4 15 -4 8 -8 15 -10 15 -2 0
-4 -7 -4 -15z"/>
<path d="M3540 3645 c0 -5 5 -17 10 -25 5 -8 10 -10 10 -5 0 6 -5 17 -10 25
-5 8 -10 11 -10 5z"/>
<path d="M3517 3590 c-3 -11 -1 -23 4 -26 5 -3 9 0 9 6 0 6 5 8 13 4 7 -5 7
-1 -3 12 -8 10 -15 20 -16 22 -1 1 -4 -6 -7 -18z"/>
<path d="M3615 3600 c3 -5 8 -10 11 -10 2 0 4 5 4 10 0 6 -5 10 -11 10 -5 0
-7 -4 -4 -10z"/>
<path d="M3727 3603 c-3 -5 -5 -33 -5 -63 -1 -35 2 -49 8 -40 5 8 7 18 4 22
-3 4 0 17 6 28 8 14 8 20 0 20 -7 0 -9 8 -5 20 6 20 1 27 -8 13z"/>
<path d="M3396 3588 c3 -5 10 -6 15 -3 13 9 11 12 -6 12 -8 0 -12 -4 -9 -9z"/>
<path d="M3625 3550 c-3 -6 1 -7 9 -4 18 7 21 14 7 14 -6 0 -13 -4 -16 -10z"/>
<path d="M3526 3523 c-4 -9 -1 -21 5 -27 9 -8 10 -8 5 2 -4 7 -2 19 4 27 7 9
8 15 2 15 -5 0 -13 -8 -16 -17z"/>
<path d="M3695 3466 c-14 -16 -17 -36 -6 -36 5 0 11 10 14 22 7 27 5 30 -8 14z"/>
<path d="M3809 3478 c-8 -16 -3 -48 7 -52 20 -8 26 10 9 24 -8 7 -12 16 -9 21
3 5 3 9 0 9 -3 0 -7 -1 -7 -2z"/>
<path d="M3781 3444 c0 -11 3 -14 6 -6 3 7 2 16 -1 19 -3 4 -6 -2 -5 -13z"/>
<path d="M3720 3435 c-7 -9 -8 -15 -2 -15 5 0 12 7 16 15 3 8 4 15 2 15 -2 0
-9 -7 -16 -15z"/>
<path d="M3760 3420 c0 -5 5 -10 11 -10 5 0 7 5 4 10 -3 6 -8 10 -11 10 -2 0
-4 -4 -4 -10z"/>
<path d="M3790 3410 c0 -5 5 -10 10 -10 6 0 10 5 10 10 0 6 -4 10 -10 10 -5 0
-10 -4 -10 -10z"/>
<path d="M3730 3400 c0 -5 5 -10 11 -10 5 0 7 5 4 10 -3 6 -8 10 -11 10 -2 0
-4 -4 -4 -10z"/>
<path d="M3765 3390 c-3 -5 -1 -10 4 -10 6 0 11 5 11 10 0 6 -2 10 -4 10 -3 0
-8 -4 -11 -10z"/>
<path d="M3707 3366 c-4 -10 -3 -15 2 -11 5 3 11 -1 14 -7 3 -9 10 -7 23 6 13
14 14 16 2 7 -13 -10 -18 -9 -26 5 -8 15 -9 15 -15 0z"/>
<path d="M3761 3334 c0 -11 3 -14 6 -6 3 7 2 16 -1 19 -3 4 -6 -2 -5 -13z"/>
<path d="M3780 3336 c0 -2 7 -7 16 -10 8 -3 12 -2 9 4 -6 10 -25 14 -25 6z"/>
<path d="M3784 3296 c-7 -18 3 -36 19 -36 7 0 6 4 -3 10 -12 8 -13 11 -1 19 9
6 10 11 2 15 -6 4 -14 0 -17 -8z"/>
<path d="M3873 3271 c0 -11 5 -18 9 -15 4 3 5 11 1 19 -7 21 -12 19 -10 -4z"/>
<path d="M3812 3250 c-14 -23 -16 -54 -3 -45 5 3 12 1 16 -5 10 -16 23 -11 20
8 -1 9 -8 16 -15 14 -9 -2 -10 5 -6 23 8 30 5 32 -12 5z"/>
<path d="M3776 3183 c-6 -14 -5 -15 5 -6 7 7 10 15 7 18 -3 3 -9 -2 -12 -12z"/>
<path d="M3807 3171 c-4 -16 0 -19 24 -16 20 3 27 0 23 -7 -5 -7 -2 -8 6 -3
10 6 8 12 -9 27 -29 23 -37 23 -44 -1z"/>
<path d="M3900 3129 c0 -5 5 -7 10 -4 6 3 10 8 10 11 0 2 -4 4 -10 4 -5 0 -10
-5 -10 -11z"/>
<path d="M2760 3385 c0 -9 44 -55 67 -71 l24 -15 -15 29 c-20 38 -43 62 -62
62 -8 0 -14 -2 -14 -5z"/>
<path d="M2934 2678 c16 -55 17 -86 3 -118 l-15 -35 -7 43 c-9 51 -44 97 -81
106 -34 9 -36 6 -22 -31 10 -25 8 -37 -11 -77 -37 -76 -9 -134 71 -143 38 -4
59 0 112 25 75 35 75 35 52 156 -15 76 -31 96 -79 96 -26 0 -29 -3 -23 -22z"/>
<path d="M2301 2669 c-18 -11 -31 -22 -28 -25 2 -3 22 6 42 21 45 30 34 34
-14 4z"/>
<path d="M3862 3398 c2 -6 10 -14 16 -16 7 -2 10 2 6 12 -7 18 -28 22 -22 4z"/>
<path d="M4153 2513 c-7 -3 -13 -11 -13 -19 0 -9 4 -13 9 -10 4 3 7 -9 5 -27
-3 -26 -2 -29 7 -14 14 24 8 75 -8 70z"/>
<path d="M3907 2426 c-3 -8 0 -17 8 -19 7 -3 12 0 11 8 -3 22 -13 27 -19 11z"/>
<path d="M4120 2410 c-9 -6 -10 -10 -3 -10 6 0 15 5 18 10 8 12 4 12 -15 0z"/>
<path d="M4103 2375 c-3 -9 -3 -19 1 -22 3 -4 6 1 6 10 0 8 8 18 18 20 16 4
16 5 -1 6 -10 0 -20 -6 -24 -14z"/>
<path d="M4065 2366 c-18 -19 -26 -36 -18 -36 9 0 37 40 31 45 -2 2 -8 -2 -13
-9z"/>
<path d="M3900 2366 c0 -2 7 -7 16 -10 8 -3 12 -2 9 4 -6 10 -25 14 -25 6z"/>
<path d="M4121 2338 c-14 -23 -14 -23 8 -4 22 20 25 26 13 26 -4 0 -13 -10
-21 -22z"/>
<path d="M4080 2325 c-7 -9 -8 -15 -2 -15 5 0 12 7 16 15 3 8 4 15 2 15 -2 0
-9 -7 -16 -15z"/>
<path d="M3926 2294 c-9 -24 -7 -27 9 -10 17 17 19 26 6 26 -5 0 -12 -7 -15
-16z"/>
<path d="M4040 2301 c0 -6 4 -13 10 -16 6 -3 7 1 4 9 -7 18 -14 21 -14 7z"/>
<path d="M4271 2254 c0 -11 3 -14 6 -6 3 7 2 16 -1 19 -3 4 -6 -2 -5 -13z"/>
<path d="M3865 2219 c-4 -6 -5 -12 -2 -15 2 -3 7 2 10 11 7 17 1 20 -8 4z"/>
<path d="M1214 2192 c3 -6 -2 -18 -11 -28 -21 -21 -26 -74 -6 -67 9 4 11 0 7
-11 -3 -9 -11 -13 -18 -9 -7 4 -7 2 1 -8 9 -11 9 -19 2 -26 -8 -8 -8 -13 0
-17 6 -4 11 0 11 9 0 9 4 14 9 10 6 -3 15 3 21 14 9 17 8 19 -5 15 -21 -9 -19
10 4 30 11 10 25 15 31 11 8 -5 8 0 -1 16 -7 13 -12 29 -11 36 2 7 -7 17 -19
23 -12 7 -19 8 -15 2z m23 -26 c-3 -7 0 -19 6 -25 8 -8 7 -11 -5 -11 -9 0 -18
-7 -20 -15 -2 -13 -5 -12 -15 4 -9 15 -10 22 -1 27 7 4 8 3 4 -4 -4 -7 -2 -12
3 -12 10 0 16 21 12 43 0 4 4 7 10 7 6 0 9 -6 6 -14z"/>
<path d="M4125 2180 c3 -5 8 -10 11 -10 2 0 4 5 4 10 0 6 -5 10 -11 10 -5 0
-7 -4 -4 -10z"/>
<path d="M4180 2181 c0 -6 4 -13 10 -16 6 -3 7 1 4 9 -7 18 -14 21 -14 7z"/>
<path d="M860 2170 c-8 -5 -11 -12 -7 -16 4 -4 13 -2 19 4 6 6 10 14 7 16 -2
3 -11 1 -19 -4z"/>
<path d="M3855 2119 c-4 -6 -4 -13 -1 -16 3 -4 6 -1 6 6 0 7 5 9 12 5 7 -4 8
-3 4 4 -9 15 -13 15 -21 1z"/>
<path d="M983 2098 c-17 -22 -26 -45 -10 -26 8 10 17 15 20 11 4 -3 7 1 7 10
0 20 -4 21 -17 5z"/>
<path d="M1014 2091 c0 -11 4 -17 8 -15 10 7 10 34 0 34 -4 0 -8 -9 -8 -19z"/>
<path d="M3964 1983 c17 -34 38 -62 46 -62 8 -1 25 17 38 39 14 25 30 40 42
40 11 0 20 5 20 11 0 6 -16 9 -37 7 -30 -2 -39 -8 -45 -28 l-8 -25 4 26 c2 23
-3 28 -44 40 l-47 15 31 -63z"/>
<path d="M893 2025 c0 -8 4 -12 9 -9 5 3 6 10 3 15 -9 13 -12 11 -12 -6z"/>
<path d="M1220 1994 c0 -10 -6 -14 -14 -11 -16 6 -43 -19 -32 -30 3 -3 6 -1 6
5 0 16 27 15 32 0 3 -7 10 2 16 20 6 19 7 32 1 32 -5 0 -9 -7 -9 -16z"/>
<path d="M1240 1970 c0 -5 5 -10 11 -10 5 0 7 5 4 10 -3 6 -8 10 -11 10 -2 0
-4 -4 -4 -10z"/>
<path d="M1230 1946 c0 -2 8 -10 18 -17 15 -13 16 -12 3 4 -13 16 -21 21 -21
13z"/>
<path d="M1206 1925 c5 -11 1 -14 -12 -9 -15 5 -16 4 -4 -4 8 -6 18 -8 22 -6
11 7 10 34 -2 34 -5 0 -7 -7 -4 -15z"/>
<path d="M1138 1866 c-17 -23 -17 -24 7 -28 21 -4 24 -2 22 23 -2 35 -7 35
-29 5z"/>
<path d="M1005 1860 c-3 -6 1 -7 9 -4 18 7 21 14 7 14 -6 0 -13 -4 -16 -10z"/>
<path d="M1236 1853 c-6 -14 -5 -15 5 -6 7 7 10 15 7 18 -3 3 -9 -2 -12 -12z"/>
<path d="M4054 1858 c-4 -6 -3 -8 4 -4 5 3 13 0 15 -6 3 -8 6 -6 6 5 1 19 -14
23 -25 5z"/>
<path d="M4110 1860 c-9 -6 -10 -10 -3 -10 6 0 15 5 18 10 8 12 4 12 -15 0z"/>
<path d="M1009 1831 c8 -5 10 -14 5 -22 -6 -11 -4 -11 10 0 13 11 14 16 4 22
-7 5 -17 9 -23 9 -5 0 -4 -4 4 -9z"/>
<path d="M1076 1807 c3 -10 9 -15 12 -12 3 3 0 11 -7 18 -10 9 -11 8 -5 -6z"/>
<path d="M1136 1807 c3 -10 9 -15 12 -12 3 3 0 11 -7 18 -10 9 -11 8 -5 -6z"/>
<path d="M1175 1800 c3 -5 8 -10 11 -10 2 0 4 5 4 10 0 6 -5 10 -11 10 -5 0
-7 -4 -4 -10z"/>
<path d="M1035 1749 c-4 -5 -4 -13 -1 -16 3 -4 6 0 6 8 0 11 2 11 10 -1 6 -9
10 -10 10 -3 0 17 -17 25 -25 12z"/>
<path d="M4031 1734 c0 -11 3 -14 6 -6 3 7 2 16 -1 19 -3 4 -6 -2 -5 -13z"/>
<path d="M1160 1701 c0 -6 4 -12 8 -15 5 -3 9 1 9 9 0 8 -4 15 -9 15 -4 0 -8
-4 -8 -9z"/>
<path d="M1115 1680 c-3 -5 -1 -10 4 -10 6 0 11 5 11 10 0 6 -2 10 -4 10 -3 0
-8 -4 -11 -10z"/>
<path d="M1380 1286 c0 -2 7 -7 16 -10 8 -3 12 -2 9 4 -6 10 -25 14 -25 6z"/>
<path d="M1562 1271 c-11 -7 -11 -9 0 -14 9 -3 15 1 15 9 0 8 -1 14 -1 14 -1
0 -7 -4 -14 -9z"/>
<path d="M1575 1220 c-3 -5 -1 -10 4 -10 6 0 11 5 11 10 0 6 -2 10 -4 10 -3 0
-8 -4 -11 -10z"/>
<path d="M2496 1203 c-8 -24 -7 -33 2 -34 4 0 13 -6 21 -12 12 -10 12 -8 1 13
-8 14 -13 31 -12 38 4 18 -6 14 -12 -5z"/>
<path d="M1447 1199 c7 -7 15 -10 18 -7 3 3 -2 9 -12 12 -14 6 -15 5 -6 -5z"/>
<path d="M2422 1201 c-11 -7 -11 -9 0 -14 9 -3 15 1 15 9 0 8 -1 14 -1 14 -1
0 -7 -4 -14 -9z"/>
<path d="M1580 1191 c0 -6 4 -13 10 -16 6 -3 7 1 4 9 -7 18 -14 21 -14 7z"/>
<path d="M1733 1158 c-2 -18 0 -20 7 -8 12 18 13 30 2 30 -4 0 -9 -10 -9 -22z"/>
<path d="M1610 1166 c0 -4 7 -14 15 -22 8 -9 15 -11 15 -6 0 5 -7 15 -15 22
-8 7 -15 9 -15 6z"/>
<path d="M1705 1159 c-4 -6 -5 -12 -2 -15 2 -3 7 2 10 11 7 17 1 20 -8 4z"/>
<path d="M1964 1162 c4 -3 14 -7 22 -8 9 -1 13 0 10 4 -4 3 -14 7 -22 8 -9 1
-13 0 -10 -4z"/>
<path d="M1786 1143 c-6 -14 -5 -15 5 -6 7 7 10 15 7 18 -3 3 -9 -2 -12 -12z"/>
<path d="M2435 1150 c-3 -5 1 -10 10 -10 9 0 13 5 10 10 -3 6 -8 10 -10 10 -2
0 -7 -4 -10 -10z"/>
<path d="M2583 1139 c-3 -10 -10 -19 -15 -19 -5 0 -6 5 -3 10 8 13 -1 13 -26
0 -13 -8 -19 -7 -19 0 0 6 -4 9 -8 6 -5 -3 -8 -27 -8 -54 1 -42 -2 -48 -16
-44 -10 2 -15 8 -12 13 3 5 0 9 -5 9 -16 0 -13 -10 11 -35 18 -19 26 -21 43
-13 11 6 25 17 30 25 8 10 14 1 28 -37 19 -53 31 -63 40 -30 6 22 -8 28 -17 8
-2 -7 -3 -2 -1 12 2 14 4 26 6 28 1 1 3 7 4 12 1 6 4 13 5 18 1 4 2 12 1 17
-1 6 8 -1 19 -14 11 -13 20 -18 20 -13 0 6 -5 14 -11 18 -6 3 -9 14 -6 25 4
15 2 16 -14 6 -10 -6 -19 -19 -19 -27 0 -8 -7 -2 -15 14 -17 32 -20 49 -5 26
8 -12 10 -10 11 10 1 14 1 28 0 32 0 4 5 5 13 2 8 -3 16 -2 19 3 3 4 -6 9 -20
10 -17 1 -27 -5 -30 -18z m-23 -54 c14 -19 14 -19 -2 -6 -10 7 -18 18 -18 24
0 6 1 8 3 6 1 -2 9 -13 17 -24z"/>
<path d="M1795 1117 c-8 -12 -15 -16 -15 -9 0 17 -17 15 -24 -4 -3 -8 -2 -12
4 -9 5 3 14 -4 20 -15 7 -13 7 -20 0 -20 -5 0 -10 -7 -10 -15 0 -8 5 -15 10
-15 6 0 9 3 9 8 -1 4 0 9 1 12 1 3 4 19 6 35 6 37 24 57 25 30 1 -11 1 -27 0
-37 -1 -9 3 -19 9 -23 8 -5 10 3 6 26 -3 18 -1 38 4 44 6 7 2 11 -10 12 -11 1
-27 -8 -35 -20z"/>
<path d="M1900 1130 c0 -6 4 -9 9 -6 5 4 8 -10 7 -30 -2 -21 3 -41 11 -50 13
-12 12 -14 -2 -14 -11 0 -15 -5 -12 -14 8 -21 -4 -28 -22 -13 -14 10 -14 10
-4 -4 7 -9 10 -19 6 -22 -3 -4 -2 -7 4 -7 6 0 14 7 17 15 3 9 14 15 23 13 13
-2 17 2 14 17 -2 11 -4 27 -5 35 0 8 -5 18 -11 22 -5 4 -9 19 -10 34 0 15 -6
29 -12 32 -7 2 -13 -1 -13 -8z m45 -120 c3 -6 -1 -7 -9 -4 -18 7 -21 14 -7 14
6 0 13 -4 16 -10z"/>
<path d="M2005 1129 c-4 -6 -5 -12 -2 -15 2 -3 7 2 10 11 7 17 1 20 -8 4z"/>
<path d="M1570 1120 c0 -5 5 -10 10 -10 6 0 10 5 10 10 0 6 -4 10 -10 10 -5 0
-10 -4 -10 -10z"/>
<path d="M1955 1119 c-4 -6 -5 -12 -2 -15 2 -3 7 2 10 11 7 17 1 20 -8 4z"/>
<path d="M2050 1121 c0 -10 19 -25 25 -20 1 2 -3 10 -11 17 -8 7 -14 8 -14 3z"/>
<path d="M2430 1121 c0 -5 6 -12 13 -14 6 -3 1 -6 -13 -6 l-25 -1 29 -15 c36
-19 34 -19 29 9 -5 23 -33 46 -33 27z"/>
<path d="M2615 1115 c-5 -11 -10 -24 -13 -30 -3 -5 3 -3 13 7 9 9 15 22 12 30
-3 9 -7 7 -12 -7z"/>
<path d="M2660 1116 c0 -8 4 -17 9 -20 5 -4 7 3 4 14 -6 23 -13 26 -13 6z"/>
<path d="M1607 1113 c-11 -10 -8 -35 3 -28 6 4 8 10 5 15 -3 4 1 11 7 13 7 3
8 6 2 6 -6 1 -14 -2 -17 -6z"/>
<path d="M1660 1108 c0 -9 5 -20 10 -23 13 -8 13 5 0 25 -8 13 -10 13 -10 -2z"/>
<path d="M1694 1095 c0 -14 4 -25 8 -25 4 0 8 11 8 25 0 14 -4 25 -8 25 -4 0
-8 -11 -8 -25z"/>
<path d="M1636 1093 c-4 -9 -1 -23 7 -30 12 -12 14 -12 14 2 0 8 -4 15 -8 15
-5 0 -6 7 -3 15 4 8 4 15 1 15 -3 0 -8 -8 -11 -17z"/>
<path d="M3260 1091 c0 -6 4 -13 10 -16 6 -3 7 1 4 9 -7 18 -14 21 -14 7z"/>
<path d="M2360 1079 c0 -5 5 -7 10 -4 6 3 10 8 10 11 0 2 -4 4 -10 4 -5 0 -10
-5 -10 -11z"/>
<path d="M1735 1057 c-4 -10 -5 -21 -1 -24 10 -10 18 4 13 24 -4 17 -4 17 -12
0z"/>
<path d="M1676 1052 c-4 -7 -4 -12 1 -13 4 0 16 -2 26 -4 9 -2 17 1 17 7 0 6
-6 8 -14 5 -8 -3 -16 -1 -19 6 -2 8 -5 8 -11 -1z"/>
<path d="M2335 1047 c-15 -12 -16 -15 -4 -22 8 -5 10 -4 6 0 -4 5 3 15 15 22
13 7 18 12 12 13 -5 0 -18 -6 -29 -13z"/>
<path d="M2420 1052 c0 -5 7 -9 15 -9 8 0 15 4 15 9 0 4 -7 8 -15 8 -8 0 -15
-4 -15 -8z"/>
<path d="M1804 1037 c-3 -9 -12 -17 -19 -17 -8 0 -17 -4 -20 -10 -3 -5 0 -7 8
-4 8 3 17 -2 21 -11 4 -12 10 -14 25 -6 21 12 22 34 3 53 -9 9 -13 7 -18 -5z
m7 -34 c-12 -20 -14 -14 -5 12 4 9 9 14 11 11 3 -2 0 -13 -6 -23z"/>
<path d="M2389 1033 c-1 -10 -2 -25 -3 -33 -1 -8 -5 -21 -10 -29 -6 -10 -6
-12 2 -7 7 4 17 16 23 28 8 15 8 19 0 13 -8 -5 -10 1 -5 19 3 14 3 26 0 26 -3
0 -7 -8 -7 -17z"/>
<path d="M2160 1005 c0 -8 2 -15 4 -15 2 0 6 7 10 15 3 8 1 15 -4 15 -6 0 -10
-7 -10 -15z"/>
<path d="M3156 1007 c3 -10 9 -15 12 -12 3 3 0 11 -7 18 -10 9 -11 8 -5 -6z"/>
<path d="M2115 1001 c-3 -5 -2 -12 3 -15 5 -3 9 1 9 9 0 17 -3 19 -12 6z"/>
<path d="M2340 996 c0 -2 7 -7 16 -10 8 -3 12 -2 9 4 -6 10 -25 14 -25 6z"/>
<path d="M2446 981 c-3 -5 1 -11 9 -14 9 -4 12 -1 8 9 -6 16 -10 17 -17 5z"/>
<path d="M2478 983 c6 -2 18 -2 25 0 6 3 1 5 -13 5 -14 0 -19 -2 -12 -5z"/>
<path d="M2348 958 c8 -8 9 -15 0 -25 -8 -11 -7 -12 6 -7 18 7 18 7 10 28 -3
9 -11 16 -17 16 -8 0 -7 -4 1 -12z"/>
<path d="M2480 954 c-14 -7 -22 -14 -17 -14 4 0 0 -11 -9 -25 -11 -17 -12 -25
-5 -25 7 0 9 -5 5 -12 -5 -9 -2 -8 10 1 9 8 13 17 7 20 -5 4 2 12 16 18 21 10
24 10 19 -3 -5 -12 -1 -14 15 -9 16 5 19 4 14 -5 -6 -9 -4 -11 4 -6 7 5 10 15
7 23 -5 12 -1 14 16 9 13 -3 27 -6 32 -6 4 0 6 -7 2 -15 -3 -9 0 -15 9 -15 9
0 12 6 8 17 -4 11 -3 14 5 9 7 -4 12 -2 12 3 0 6 -3 11 -7 12 -29 3 -58 11
-83 24 -16 8 -30 15 -32 14 -2 -1 -14 -7 -28 -15z"/>
<path d="M2423 946 c-9 -11 -9 -15 0 -19 7 -3 14 3 14 14 2 22 2 22 -14 5z"/>
<path d="M2154 939 c2 -15 20 -13 24 3 3 10 2 10 -6 -1 -7 -9 -11 -10 -15 -2
-4 7 -5 8 -3 0z"/>
<path d="M2262 937 c-8 -10 -6 -13 8 -14 13 -1 17 3 13 13 -6 17 -8 17 -21 1z"/>
<path d="M2695 930 c-3 -6 1 -7 9 -4 18 7 21 14 7 14 -6 0 -13 -4 -16 -10z"/>
<path d="M2731 924 c0 -11 3 -14 6 -6 3 7 2 16 -1 19 -3 4 -6 -2 -5 -13z"/>
<path d="M2350 901 c-8 -16 -7 -19 8 -17 9 2 20 -1 23 -6 4 -6 7 2 7 16 0 31
-23 35 -38 7z"/>
<path d="M2404 904 c3 -8 6 -18 6 -20 0 -3 5 -2 10 1 15 9 12 22 -6 29 -12 5
-15 2 -10 -10z"/>
<path d="M2194 898 c-3 -4 5 -5 17 -3 30 6 36 14 9 12 -12 -1 -24 -5 -26 -9z"/>
<path d="M2289 897 c6 -8 7 -18 3 -22 -4 -5 -1 -5 6 -1 7 4 10 11 7 16 -3 5 3
11 12 13 11 3 6 5 -11 6 -23 1 -26 -2 -17 -12z"/>
<path d="M2100 890 c-20 -6 -21 -8 -5 -8 11 0 29 3 40 8 25 11 -1 11 -35 0z"/>
<path d="M2170 880 c6 -11 13 -20 16 -20 2 0 0 9 -6 20 -6 11 -13 20 -16 20
-2 0 0 -9 6 -20z"/>
<path d="M2640 891 c0 -6 4 -13 10 -16 6 -3 7 1 4 9 -7 18 -14 21 -14 7z"/>
<path d="M2905 880 c3 -5 8 -10 11 -10 2 0 4 5 4 10 0 6 -5 10 -11 10 -5 0 -7
-4 -4 -10z"/>
<path d="M2530 877 c0 -2 6 -10 14 -16 11 -9 16 -9 22 1 4 7 4 10 -1 6 -4 -4
-14 -3 -22 3 -7 6 -13 9 -13 6z"/>
</g>
</svg>
