<?xml version="1.0" standalone="no"?>
<!DOCTYPE svg PUBLIC "-//W3C//DTD SVG 20010904//EN"
 "http://www.w3.org/TR/2001/REC-SVG-20010904/DTD/svg10.dtd">
<svg version="1.0" xmlns="http://www.w3.org/2000/svg"
 width="3375.000000pt" height="3375.000000pt" viewBox="0 0 3375.000000 3375.000000"
 preserveAspectRatio="xMidYMid meet">

<g transform="translate(0.000000,3375.000000) scale(0.100000,-0.100000)"
fill="#000000" stroke="none">
<path d="M10920 26925 l0 -105 -105 0 -105 0 0 -210 0 -210 105 0 105 0 0
-210 0 -210 105 0 105 0 0 -210 0 -210 105 0 105 0 0 -210 0 -210 105 0 105 0
0 -105 0 -105 105 0 105 0 0 -210 0 -210 105 0 105 0 0 -210 0 -210 105 0 105
0 0 -210 0 -210 105 0 105 0 0 -105 0 -105 105 0 105 0 0 -210 0 -210 105 0
105 0 0 -210 0 -210 105 0 105 0 0 -210 0 -210 105 0 105 0 0 -105 0 -105 105
0 105 0 0 -210 0 -210 105 0 105 0 0 -210 0 -210 105 0 105 0 0 -210 0 -210
105 0 105 0 0 -210 0 -210 105 0 105 0 0 -105 0 -105 105 0 105 0 0 -210 0
-210 105 0 105 0 0 -210 0 -210 105 0 105 0 0 -210 0 -210 105 0 105 0 0 -105
0 -105 105 0 105 0 0 -210 0 -210 105 0 105 0 0 -210 0 -210 105 0 105 0 0
-210 0 -210 105 0 105 0 0 -105 0 -105 105 0 105 0 0 -315 0 -315 -105 0 -105
0 0 -210 0 -210 -105 0 -105 0 0 -210 0 -210 -105 0 -105 0 0 -105 0 -105
-105 0 -105 0 0 -210 0 -210 -105 0 -105 0 0 -210 0 -210 -105 0 -105 0 0
-210 0 -210 -105 0 -105 0 0 -105 0 -105 -105 0 -105 0 0 -210 0 -210 -105 0
-105 0 0 -210 0 -210 -105 0 -105 0 0 -105 0 -105 -105 0 -105 0 0 -210 0
-210 -105 0 -105 0 0 -210 0 -210 -105 0 -105 0 0 -105 0 -105 -105 0 -105 0
0 -210 0 -210 -105 0 -105 0 0 -210 0 -210 -105 0 -105 0 0 -210 0 -210 -105
0 -105 0 0 -105 0 -105 -105 0 -105 0 0 -210 0 -210 -105 0 -105 0 0 -210 0
-210 -105 0 -105 0 0 -105 0 -105 -105 0 -105 0 0 -210 0 -210 -105 0 -105 0
0 -210 0 -210 -105 0 -105 0 0 -210 0 -210 -105 0 -105 0 0 -105 0 -105 -105
0 -105 0 0 -210 0 -210 -105 0 -105 0 0 -210 0 -210 -105 0 -105 0 0 -210 0
-210 6195 0 6195 0 0 210 0 210 105 0 105 0 0 210 0 210 105 0 105 0 0 105 0
105 105 0 105 0 0 210 0 210 105 0 105 0 0 210 0 210 105 0 105 0 0 105 0 105
105 0 105 0 0 210 0 210 105 0 105 0 0 210 0 210 105 0 105 0 0 210 0 210 105
0 105 0 0 105 0 105 105 0 105 0 0 210 0 210 105 0 105 0 0 210 0 210 105 0
105 0 0 105 0 105 105 0 105 0 0 210 0 210 105 0 105 0 0 210 0 210 105 0 105
0 0 105 0 105 105 0 105 0 0 210 0 210 105 0 105 0 0 210 0 210 105 0 105 0 0
105 0 105 105 0 105 0 0 210 0 210 105 0 105 0 0 210 0 210 105 0 105 0 0 210
0 210 105 0 105 0 0 105 0 105 105 0 105 0 0 210 0 210 105 0 105 0 0 210 0
210 105 0 105 0 0 105 0 105 105 0 105 0 0 210 0 210 105 0 105 0 0 420 0 420
-105 0 -105 0 0 105 0 105 -105 0 -105 0 0 210 0 210 -105 0 -105 0 0 210 0
210 -105 0 -105 0 0 210 0 210 -105 0 -105 0 0 105 0 105 -105 0 -105 0 0 210
0 210 -105 0 -105 0 0 210 0 210 -105 0 -105 0 0 210 0 210 -105 0 -105 0 0
210 0 210 -105 0 -105 0 0 105 0 105 -105 0 -105 0 0 210 0 210 -105 0 -105 0
0 210 0 210 -105 0 -105 0 0 210 0 210 -105 0 -105 0 0 105 0 105 -105 0 -105
0 0 210 0 210 -105 0 -105 0 0 210 0 210 -105 0 -105 0 0 210 0 210 -105 0
-105 0 0 210 0 210 -105 0 -105 0 0 105 0 105 -105 0 -105 0 0 210 0 210 -105
0 -105 0 0 210 0 210 -105 0 -105 0 0 210 0 210 -105 0 -105 0 0 105 0 105
-105 0 -105 0 0 210 0 210 -105 0 -105 0 0 210 0 210 -105 0 -105 0 0 210 0
210 -105 0 -105 0 0 105 0 105 -5985 0 -5985 0 0 -105z"/>
<path d="M9450 24090 l0 -210 -105 0 -105 0 0 -210 0 -210 -105 0 -105 0 0
-105 0 -105 -105 0 -105 0 0 -210 0 -210 -105 0 -105 0 0 -210 0 -210 -105 0
-105 0 0 -210 0 -210 -105 0 -105 0 0 -105 0 -105 -105 0 -105 0 0 -210 0
-210 -105 0 -105 0 0 -210 0 -210 -105 0 -105 0 0 -210 0 -210 -105 0 -105 0
0 -210 0 -210 -105 0 -105 0 0 -105 0 -105 -105 0 -105 0 0 -210 0 -210 -105
0 -105 0 0 -210 0 -210 -105 0 -105 0 0 -210 0 -210 -105 0 -105 0 0 -105 0
-105 -105 0 -105 0 0 -210 0 -210 -105 0 -105 0 0 -210 0 -210 -105 0 -105 0
0 -210 0 -210 -105 0 -105 0 0 -105 0 -105 -105 0 -105 0 0 -210 0 -210 105 0
105 0 0 -105 0 -105 105 0 105 0 0 -210 0 -210 105 0 105 0 0 -210 0 -210 105
0 105 0 0 -105 0 -105 105 0 105 0 0 -210 0 -210 105 0 105 0 0 -210 0 -210
105 0 105 0 0 -210 0 -210 105 0 105 0 0 -105 0 -105 105 0 105 0 0 -210 0
-210 105 0 105 0 0 -210 0 -210 105 0 105 0 0 -105 0 -105 105 0 105 0 0 -210
0 -210 105 0 105 0 0 -210 0 -210 105 0 105 0 0 -105 0 -105 105 0 105 0 0
-210 0 -210 105 0 105 0 0 -210 0 -210 105 0 105 0 0 -210 0 -210 105 0 105 0
0 -105 0 -105 105 0 105 0 0 -210 0 -210 105 0 105 0 0 -105 0 -105 105 0 105
0 0 -105 0 -105 105 0 105 0 0 105 0 105 105 0 105 0 0 7245 0 7245 -105 0
-105 0 0 105 0 105 -210 0 -210 0 0 -210z"/>
</g>
</svg>
